ZiroliWes-Regular-Wide.ufo
<glyph name="dollar" format="1">
  <advance width="500"/>
  <unicode hex="0024"/>
  <outline>
    <contour>
      <point x="238" y="683" type="curve" smooth="yes"/>
      <point x="290" y="683"/>
      <point x="330" y="665"/>
      <point x="356" y="665" type="curve" smooth="yes"/>
      <point x="371" y="665"/>
      <point x="391" y="676"/>
      <point x="390" y="695" type="curve"/>
      <point x="403" y="697" type="line"/>
      <point x="419" y="648"/>
      <point x="447" y="581"/>
      <point x="485" y="508" type="curve"/>
      <point x="470" y="500" type="line"/>
      <point x="415" y="587"/>
      <point x="359" y="635"/>
      <point x="290" y="635" type="curve" smooth="yes"/>
      <point x="224" y="635"/>
      <point x="182" y="592"/>
      <point x="182" y="530" type="curve" smooth="yes"/>
      <point x="182" y="495"/>
      <point x="200" y="437"/>
      <point x="295" y="394" type="curve" smooth="yes"/>
      <point x="370" y="360"/>
      <point x="429" y="341"/>
      <point x="465" y="305" type="curve" smooth="yes"/>
      <point x="489" y="281"/>
      <point x="510" y="239"/>
      <point x="510" y="188" type="curve" smooth="yes"/>
      <point x="510" y="74"/>
      <point x="424" y="-18"/>
      <point x="277" y="-18" type="curve" smooth="yes"/>
      <point x="206" y="-18"/>
      <point x="148" y="4"/>
      <point x="126" y="4" type="curve" smooth="yes"/>
      <point x="105" y="4"/>
      <point x="98" y="-11"/>
      <point x="96" y="-21" type="curve"/>
      <point x="84" y="-22" type="line"/>
      <point x="65" y="46"/>
      <point x="39" y="130"/>
      <point x="7" y="194" type="curve"/>
      <point x="25" y="203" type="line"/>
      <point x="86" y="88"/>
      <point x="157" y="27"/>
      <point x="253" y="27" type="curve" smooth="yes"/>
      <point x="337" y="27"/>
      <point x="393" y="81"/>
      <point x="393" y="167" type="curve" smooth="yes"/>
      <point x="393" y="242"/>
      <point x="362" y="297"/>
      <point x="259" y="341" type="curve" smooth="yes"/>
      <point x="176" y="376"/>
      <point x="149" y="389"/>
      <point x="117" y="413" type="curve" smooth="yes"/>
      <point x="81" y="440"/>
      <point x="56" y="479"/>
      <point x="56" y="536" type="curve"/>
      <point x="56" y="612"/>
      <point x="120" y="683"/>
    </contour>
    <contour>
      <point x="320" y="748" type="line"/>
      <point x="275" y="-64" type="line"/>
      <point x="210" y="-80" type="line"/>
      <point x="253" y="752" type="line"/>
    </contour>
  </outline>
</glyph>
<glyph name="percent" format="1">
  <advance width="625"/>
  <unicode hex="0025"/>
  <outline>
    <contour>
      <point x="228" y="1" type="curve"/>
      <point x="228" y="15" type="line"/>
      <point x="166" y="20"/>
      <point x="170" y="39"/>
      <point x="235" y="162" type="curve" smooth="yes"/>
      <point x="367" y="405" type="line" smooth="yes"/>
      <point x="496" y="643"/>
      <point x="509" y="660"/>
      <point x="573" y="669" type="curve"/>
      <point x="573" y="682" type="line"/>
      <point x="546" y="678"/>
      <point x="528" y="674"/>
      <point x="512" y="674" type="curve" smooth="yes"/>
      <point x="491" y="674"/>
      <point x="438" y="677"/>
      <point x="416" y="682" type="curve"/>
      <point x="416" y="669" type="line"/>
      <point x="465" y="660"/>
      <point x="463" y="643"/>
      <point x="355" y="450" type="curve" smooth="yes"/>
      <point x="250" y="253" type="line" smooth="yes"/>
      <point x="137" y="39"/>
      <point x="119" y="20"/>
      <point x="55" y="14" type="curve"/>
      <point x="55" y="1" type="line"/>
      <point x="92" y="5"/>
      <point x="124" y="9"/>
      <point x="150" y="9" type="curve" smooth="yes"/>
      <point x="170" y="9"/>
      <point x="202" y="4"/>
    </contour>
    <contour>
      <point x="60" y="515"/>
      <point x="106" y="469"/>
      <point x="169" y="469" type="curve" smooth="yes"/>
      <point x="233" y="469"/>
      <point x="282" y="512"/>
      <point x="282" y="581" type="curve" smooth="yes"/>
      <point x="282" y="631"/>
      <point x="243" y="681"/>
      <point x="175" y="681" type="curve" smooth="yes"/>
      <point x="111" y="681"/>
      <point x="60" y="640"/>
      <point x="60" y="573" type="curve" smooth="yes"/>
    </contour>
    <contour>
      <point x="127" y="486"/>
      <point x="97" y="528"/>
      <point x="97" y="581" type="curve" smooth="yes"/>
      <point x="97" y="629"/>
      <point x="124" y="662"/>
      <point x="169" y="662" type="curve" smooth="yes"/>
      <point x="214" y="662"/>
      <point x="246" y="622"/>
      <point x="246" y="567" type="curve" smooth="yes"/>
      <point x="246" y="510"/>
      <point x="211" y="486"/>
      <point x="175" y="486" type="curve" smooth="yes"/>
    </contour>
    <contour>
      <point x="357" y="63"/>
      <point x="403" y="17"/>
      <point x="466" y="17" type="curve" smooth="yes"/>
      <point x="530" y="17"/>
      <point x="579" y="60"/>
      <point x="579" y="129" type="curve" smooth="yes"/>
      <point x="579" y="179"/>
      <point x="540" y="229"/>
      <point x="472" y="229" type="curve" smooth="yes"/>
      <point x="408" y="229"/>
      <point x="357" y="188"/>
      <point x="357" y="121" type="curve" smooth="yes"/>
    </contour>
    <contour>
      <point x="424" y="34"/>
      <point x="394" y="76"/>
      <point x="394" y="129" type="curve" smooth="yes"/>
      <point x="394" y="177"/>
      <point x="421" y="210"/>
      <point x="466" y="210" type="curve" smooth="yes"/>
      <point x="511" y="210"/>
      <point x="543" y="170"/>
      <point x="543" y="115" type="curve" smooth="yes"/>
      <point x="543" y="58"/>
      <point x="508" y="34"/>
      <point x="472" y="34" type="curve" smooth="yes"/>
    </contour>
  </outline>
</glyph>
<glyph name="asterisk" format="1">
  <advance width="467"/>
  <unicode hex="002A"/>
  <outline>
    <contour>
      <point x="73" y="770" type="line"/>
      <point x="207" y="698" type="line"/>
      <point x="290" y="826" type="line"/>
      <point x="292" y="678" type="line"/>
      <point x="444" y="676" type="line"/>
      <point x="312" y="597" type="line"/>
      <point x="384" y="468" type="line"/>
      <point x="249" y="537" type="line"/>
      <point x="168" y="409" type="line"/>
      <point x="166" y="559" type="line"/>
      <point x="12" y="561" type="line"/>
      <point x="144" y="640" type="line"/>
    </contour>
  </outline>
</glyph>
<glyph name="comma" format="1">
  <advance width="251"/>
  <unicode hex="002C"/>
  <outline>
    <contour>
      <point x="19" y="33" type="curve"/>
      <point x="12" y="39" type="line"/>
      <point x="24" y="75"/>
      <point x="54" y="120"/>
      <point x="108" y="120" type="curve" smooth="yes"/>
      <point x="156" y="120"/>
      <point x="195" y="90"/>
      <point x="195" y="33" type="curve" smooth="yes"/>
      <point x="195" y="-40"/>
      <point x="152" y="-113"/>
      <point x="46" y="-184" type="curve"/>
      <point x="37" y="-161" type="line"/>
      <point x="94" y="-135"/>
      <point x="126" y="-81"/>
      <point x="126" y="-18" type="curve" smooth="yes"/>
      <point x="126.0" y="13.9491525424"/>
      <point x="102.789473684" y="47.0"/>
      <point x="63" y="47" type="curve" smooth="yes"/>
      <point x="48" y="47"/>
      <point x="33" y="42"/>
    </contour>
  </outline>
</glyph>
<glyph name="slash" format="1">
  <advance width="526"/>
  <unicode hex="002F"/>
  <outline>
    <contour>
      <point x="19" y="-4" type="curve"/>
      <point x="19" y="12" type="line"/>
      <point x="84" y="11"/>
      <point x="101" y="15"/>
      <point x="176" y="197" type="curve" smooth="yes"/>
      <point x="227" y="320"/>
      <point x="341" y="631"/>
      <point x="354" y="689" type="curve"/>
      <point x="356" y="702" type="line"/>
      <point x="396.954446269" y="697.005555333"/>
      <point x="473.019152349" y="697.002227017"/>
      <point x="516" y="702" type="curve"/>
      <point x="516" y="688" type="line"/>
      <point x="443" y="690"/>
      <point x="410" y="664"/>
      <point x="300" y="387" type="curve" smooth="yes"/>
      <point x="237" y="227"/>
      <point x="183" y="58"/>
      <point x="172" y="1" type="curve"/>
      <point x="123" y="5"/>
      <point x="65" y="2"/>
    </contour>
  </outline>
</glyph>
<glyph name="two" format="1">
  <advance width="564"/>
  <unicode hex="0032"/>
  <outline>
    <contour>
      <point x="133" y="27" type="line"/>
      <point x="263.10585222" y="119.796085774"/>
      <point x="500.0" y="317.183406114"/>
      <point x="500" y="476" type="curve" smooth="yes"/>
      <point x="500.0" y="614.0"/>
      <point x="404.463636364" y="693.0"/>
      <point x="274" y="693" type="curve" smooth="yes"/>
      <point x="139.0" y="693.0"/>
      <point x="50.0" y="607.482758621"/>
      <point x="50" y="507" type="curve" smooth="yes"/>
      <point x="50.0" y="454.756097561"/>
      <point x="85.0256849935" y="405.706947145"/>
      <point x="147" y="388" type="curve"/>
      <point x="154" y="394" type="line"/>
      <point x="134" y="417"/>
      <point x="110" y="451"/>
      <point x="110" y="505" type="curve" smooth="yes"/>
      <point x="110.0" y="592.0"/>
      <point x="163.944055944" y="647.0"/>
      <point x="243" y="647" type="curve" smooth="yes"/>
      <point x="314.0" y="647.0"/>
      <point x="376.0" y="583.540145985"/>
      <point x="376" y="486" type="curve" smooth="yes"/>
      <point x="376" y="347"/>
      <point x="204" y="152"/>
      <point x="37" y="11" type="curve"/>
    </contour>
    <contour>
      <point x="122" y="66" type="curve"/>
      <point x="37" y="11" type="line"/>
      <point x="37" y="-8" type="line"/>
      <point x="91.2445167502" y="-5.4169277738"/>
      <point x="220.726415094" y="0.0"/>
      <point x="242" y="0" type="curve" smooth="yes"/>
      <point x="290.891891892" y="0.0"/>
      <point x="439.155542886" y="2.10692505007"/>
      <point x="510" y="-2" type="curve"/>
      <point x="510" y="14" type="line" smooth="yes"/>
      <point x="510" y="63.0"/>
      <point x="505.529430212" y="113.690761"/>
      <point x="536" y="211" type="curve"/>
      <point x="518" y="215" type="line"/>
      <point x="498.538039111" y="86.3348141222"/>
      <point x="455.43255814" y="54.0"/>
      <point x="282" y="54" type="curve" smooth="yes"/>
      <point x="220.121546961" y="54.0"/>
      <point x="146.432292949" y="62.3804010447"/>
    </contour>
  </outline>
</glyph>
<glyph name="three" format="1">
  <advance width="568"/>
  <unicode hex="0033"/>
  <outline>
    <contour>
      <point x="283" y="369" type="curve"/>
      <point x="175" y="349" type="line"/>
      <point x="185" y="340" type="line"/>
      <point x="202.535699868" y="345.537589432"/>
      <point x="221" y="348"/>
      <point x="240" y="348" type="curve" smooth="yes"/>
      <point x="353" y="348"/>
      <point x="426" y="297"/>
      <point x="426" y="184" type="curve" smooth="yes"/>
      <point x="426" y="75"/>
      <point x="360" y="23"/>
      <point x="278" y="24" type="curve" smooth="yes"/>
      <point x="182" y="25"/>
      <point x="99" y="94"/>
      <point x="99" y="182" type="curve" smooth="yes"/>
      <point x="99" y="197"/>
      <point x="101" y="212"/>
      <point x="109" y="229" type="curve"/>
      <point x="103" y="235" type="line"/>
      <point x="85" y="215"/>
      <point x="66" y="172"/>
      <point x="66" y="129" type="curve" smooth="yes"/>
      <point x="66.0" y="43.8947368421"/>
      <point x="141.0" y="-18.0"/>
      <point x="268" y="-18" type="curve" smooth="yes"/>
      <point x="437.0" y="-18.0"/>
      <point x="541" y="80"/>
      <point x="541" y="215" type="curve" smooth="yes"/>
      <point x="541.0" y="327.305882353"/>
      <point x="470" y="387"/>
      <point x="381" y="387" type="curve" smooth="yes"/>
      <point x="347" y="387"/>
      <point x="311" y="381"/>
    </contour>
    <contour>
      <point x="396" y="636" type="line"/>
      <point x="352" y="564"/>
      <point x="256" y="430"/>
      <point x="176" y="349" type="curve"/>
      <point x="311" y="363" type="line"/>
      <point x="349.275751507" y="418.399114023"/>
      <point x="442" y="544"/>
      <point x="546" y="667" type="curve"/>
      <point x="541" y="680" type="line"/>
      <point x="511.39560377" y="676.052747169"/>
      <point x="428.530201342" y="669.0"/>
      <point x="247" y="669" type="curve"/>
      <point x="247" y="642" type="line"/>
    </contour>
    <contour>
      <point x="432" y="610" type="curve"/>
      <point x="432" y="626"/>
      <point x="444" y="656"/>
      <point x="444" y="670" type="curve"/>
      <point x="357" y="670" type="line" smooth="yes"/>
      <point x="277" y="670"/>
      <point x="208" y="671"/>
      <point x="164" y="681" type="curve" smooth="yes"/>
      <point x="138" y="687"/>
      <point x="124" y="696"/>
      <point x="121" y="706" type="curve"/>
      <point x="111" y="704" type="line"/>
      <point x="113" y="662"/>
      <point x="105" y="566"/>
      <point x="74" y="489" type="curve"/>
      <point x="92" y="486" type="line"/>
      <point x="114" y="602"/>
      <point x="160" y="620"/>
      <point x="312" y="620" type="curve" smooth="yes"/>
      <point x="353.612903226" y="620.0"/>
      <point x="385.524175045" y="615.809478119"/>
    </contour>
  </outline>
</glyph>
<glyph name="five" format="1">
  <advance width="577"/>
  <unicode hex="0035"/>
  <outline>
    <contour>
      <point x="465" y="682" type="line"/>
      <point x="448" y="675"/>
      <point x="405" y="670"/>
      <point x="282" y="670" type="curve" smooth="yes"/>
      <point x="241.565217391" y="670.0"/>
      <point x="191" y="670"/>
      <point x="127" y="674" type="curve"/>
      <point x="162" y="599" type="line"/>
      <point x="183" y="601"/>
      <point x="226" y="605"/>
      <point x="266" y="605" type="curve" smooth="yes"/>
      <point x="432" y="605"/>
      <point x="455" y="593"/>
      <point x="467" y="500" type="curve"/>
      <point x="484" y="503" type="line"/>
      <point x="469" y="557"/>
      <point x="456" y="654"/>
      <point x="469" y="681" type="curve"/>
    </contour>
    <contour>
      <point x="127" y="674" type="line"/>
      <point x="130" y="595"/>
      <point x="117.289808324" y="423.709869114"/>
      <point x="107" y="363" type="curve"/>
      <point x="172" y="382" type="line"/>
      <point x="175" y="487"/>
      <point x="184" y="592"/>
      <point x="192" y="658" type="curve"/>
    </contour>
    <contour>
      <point x="244" y="-15" type="curve" smooth="yes"/>
      <point x="429.16091954" y="-15.0"/>
      <point x="511" y="114"/>
      <point x="511" y="237" type="curve" smooth="yes"/>
      <point x="511.0" y="321.409756098"/>
      <point x="442.0" y="443.0"/>
      <point x="296" y="443" type="curve" smooth="yes"/>
      <point x="264" y="443"/>
      <point x="211" y="434"/>
      <point x="146" y="405" type="curve"/>
      <point x="115" y="372" type="line"/>
      <point x="107" y="363" type="line"/>
      <point x="118" y="350" type="line"/>
      <point x="171" y="374"/>
      <point x="217" y="382"/>
      <point x="241" y="382" type="curve" smooth="yes"/>
      <point x="338.0" y="382.0"/>
      <point x="405.0" y="297.171875"/>
      <point x="405" y="199" type="curve" smooth="yes"/>
      <point x="405" y="83"/>
      <point x="321" y="26"/>
      <point x="231" y="27" type="curve" smooth="yes"/>
      <point x="157" y="28"/>
      <point x="87" y="75"/>
      <point x="87" y="162" type="curve" smooth="yes"/>
      <point x="87" y="178"/>
      <point x="88" y="200"/>
      <point x="95" y="229" type="curve"/>
      <point x="84" y="236" type="line"/>
      <point x="57" y="205"/>
      <point x="35" y="170"/>
      <point x="35" y="128" type="curve" smooth="yes"/>
      <point x="35.0" y="38.3076923077"/>
      <point x="150.0" y="-15.0"/>
    </contour>
  </outline>
</glyph>
<glyph name="six" format="1">
  <advance width="630"/>
  <unicode hex="0036"/>
  <outline>
    <contour>
      <point x="203" y="161" type="line"/>
      <point x="193" y="194"/>
      <point x="190" y="211"/>
      <point x="190" y="233" type="curve" smooth="yes"/>
      <point x="190.0" y="313.192307692"/>
      <point x="262.0" y="372.0"/>
      <point x="331" y="372" type="curve" smooth="yes"/>
      <point x="419.0" y="372.0"/>
      <point x="492.0" y="300.827586207"/>
      <point x="492" y="200" type="curve" smooth="yes"/>
      <point x="492.0" y="100.735483871"/>
      <point x="427.0" y="43.0"/>
      <point x="356" y="43" type="curve" smooth="yes"/>
      <point x="252" y="43"/>
      <point x="180" y="143"/>
      <point x="180" y="296" type="curve"/>
      <point x="184" y="325" type="line"/>
      <point x="188" y="576"/>
      <point x="406" y="705"/>
      <point x="615" y="690" type="curve"/>
      <point x="613" y="707" type="line"/>
      <point x="269" y="727"/>
      <point x="72" y="554"/>
      <point x="72" y="269" type="curve" smooth="yes"/>
      <point x="72" y="117"/>
      <point x="173" y="-11"/>
      <point x="339" y="-11" type="curve" smooth="yes"/>
      <point x="480.0" y="-11.0"/>
      <point x="581.0" y="110.956521739"/>
      <point x="581" y="244" type="curve" smooth="yes"/>
      <point x="581.0" y="365.817307692"/>
      <point x="497.0" y="450.0"/>
      <point x="388" y="450" type="curve" smooth="yes"/>
      <point x="266.0" y="450.0"/>
      <point x="182.381013246" y="362.704076369"/>
      <point x="149" y="249" type="curve"/>
    </contour>
  </outline>
</glyph>
<glyph name="seven" format="1">
  <advance width="581"/>
  <unicode hex="0037"/>
  <outline>
    <contour>
      <point x="378" y="-4" type="curve"/>
      <point x="378" y="12" type="line"/>
      <point x="319" y="15"/>
      <point x="308" y="35"/>
      <point x="370" y="202" type="curve" smooth="yes"/>
      <point x="439.604080138" y="390.925360374"/>
      <point x="540.053914676" y="609.090386369"/>
      <point x="574" y="666" type="curve"/>
      <point x="572" y="680" type="line"/>
      <point x="546.266375377" y="673.823930091"/>
      <point x="424.677130045" y="670.0"/>
      <point x="339" y="670" type="curve"/>
      <point x="339" y="646" type="line"/>
      <point x="433" y="630" type="line"/>
      <point x="406" y="535"/>
      <point x="319" y="310"/>
      <point x="267" y="192" type="curve" smooth="yes"/>
      <point x="198" y="35"/>
      <point x="173" y="16"/>
      <point x="93" y="12" type="curve"/>
      <point x="93" y="-4" type="line"/>
      <point x="130" y="0"/>
      <point x="179" y="4"/>
      <point x="220" y="4" type="curve" smooth="yes"/>
      <point x="262" y="4"/>
      <point x="342" y="0"/>
    </contour>
    <contour>
      <point x="446" y="610" type="curve"/>
      <point x="446" y="626"/>
      <point x="458" y="656"/>
      <point x="458" y="670" type="curve"/>
      <point x="357" y="670" type="line" smooth="yes"/>
      <point x="277" y="670"/>
      <point x="208" y="671"/>
      <point x="164" y="681" type="curve" smooth="yes"/>
      <point x="138" y="687"/>
      <point x="124" y="696"/>
      <point x="121" y="706" type="curve"/>
      <point x="111" y="704" type="line"/>
      <point x="113" y="662"/>
      <point x="105" y="566"/>
      <point x="74" y="489" type="curve"/>
      <point x="92" y="482" type="line"/>
      <point x="114" y="598"/>
      <point x="160" y="616"/>
      <point x="312" y="616" type="curve" smooth="yes"/>
      <point x="359" y="616"/>
      <point x="395" y="617"/>
    </contour>
  </outline>
</glyph>
<glyph name="eight" format="1">
  <advance width="686"/>
  <unicode hex="0038"/>
  <outline>
    <contour>
      <point x="342" y="-14" type="curve" smooth="yes"/>
      <point x="503.811320755" y="-14.0"/>
      <point x="610" y="66"/>
      <point x="610" y="210" type="curve" smooth="yes"/>
      <point x="610" y="300"/>
      <point x="542.962021805" y="377.845510094"/>
      <point x="414" y="388" type="curve"/>
      <point x="343" y="384" type="line"/>
      <point x="292" y="388" type="line"/>
      <point x="172.416958711" y="380.721032269"/>
      <point x="84.0" y="298.0"/>
      <point x="84" y="186" type="curve" smooth="yes"/>
      <point x="84.0" y="75.0"/>
      <point x="180.117647059" y="-14.0"/>
    </contour>
    <contour>
      <point x="350" y="40" type="curve" smooth="yes"/>
      <point x="256.196078431" y="40.0"/>
      <point x="194.0" y="106.0"/>
      <point x="194" y="199" type="curve" smooth="yes"/>
      <point x="194.0" y="278.0"/>
      <point x="248.067114094" y="347.0"/>
      <point x="346" y="347" type="curve" smooth="yes"/>
      <point x="441.905405405" y="347.0"/>
      <point x="497.0" y="275.0"/>
      <point x="497" y="189" type="curve" smooth="yes"/>
      <point x="497.0" y="91.0"/>
      <point x="433.708333333" y="40.0"/>
    </contour>
    <contour>
      <point x="418" y="377" type="line"/>
      <point x="513.888137799" y="400.461991164"/>
      <point x="562.0" y="468.0"/>
      <point x="562" y="537" type="curve" smooth="yes"/>
      <point x="562.0" y="625.0"/>
      <point x="500.132701422" y="709.0"/>
      <point x="348" y="709" type="curve" smooth="yes"/>
      <point x="202.0969163" y="709.0"/>
      <point x="118.0" y="621.0"/>
      <point x="118" y="532" type="curve" smooth="yes"/>
      <point x="118.0" y="446.0"/>
      <point x="181.499619514" y="391.347914316"/>
      <point x="252" y="375" type="curve"/>
      <point x="337" y="371" type="line"/>
    </contour>
    <contour>
      <point x="220" y="539" type="curve" smooth="yes"/>
      <point x="220.0" y="615.0"/>
      <point x="277.486725664" y="657.0"/>
      <point x="336" y="657" type="curve" smooth="yes"/>
      <point x="414.941176471" y="657.0"/>
      <point x="458.0" y="597.0"/>
      <point x="458" y="531" type="curve" smooth="yes"/>
      <point x="458.0" y="458.0"/>
      <point x="421.044247788" y="401.0"/>
      <point x="342" y="401" type="curve" smooth="yes"/>
      <point x="265.109243697" y="401.0"/>
      <point x="220.0" y="466.0"/>
    </contour>
  </outline>
</glyph>
<glyph name="nine" format="1">
  <advance width="605"/>
  <unicode hex="0039"/>
  <outline>
    <contour>
      <point x="432" y="549" type="line"/>
      <point x="443" y="524"/>
      <point x="449" y="499"/>
      <point x="450" y="472" type="curve" smooth="yes"/>
      <point x="452" y="398"/>
      <point x="417" y="316"/>
      <point x="326" y="316" type="curve" smooth="yes"/>
      <point x="238" y="317"/>
      <point x="176" y="385"/>
      <point x="176" y="484" type="curve" smooth="yes"/>
      <point x="176" y="574"/>
      <point x="226" y="633"/>
      <point x="309" y="633" type="curve" smooth="yes"/>
      <point x="386" y="633"/>
      <point x="458" y="568"/>
      <point x="461" y="400" type="curve"/>
      <point x="461" y="400" type="line"/>
      <point x="465" y="369"/>
      <point x="467" y="339"/>
      <point x="467" y="311" type="curve" smooth="yes"/>
      <point x="469" y="169"/>
      <point x="406" y="34"/>
      <point x="258" y="34" type="curve" smooth="yes"/>
      <point x="213" y="34"/>
      <point x="159" y="56"/>
      <point x="128" y="92" type="curve" smooth="yes"/>
      <point x="108" y="115"/>
      <point x="92" y="154"/>
      <point x="100" y="187" type="curve"/>
      <point x="92" y="187" type="line"/>
      <point x="81" y="170"/>
      <point x="64" y="138"/>
      <point x="64" y="106" type="curve"/>
      <point x="64.0" y="25.0"/>
      <point x="134" y="-18"/>
      <point x="238" y="-18" type="curve" smooth="yes"/>
      <point x="426" y="-18"/>
      <point x="577.0" y="116.0"/>
      <point x="577" y="352" type="curve" smooth="yes"/>
      <point x="577" y="551"/>
      <point x="484" y="691"/>
      <point x="318" y="690" type="curve" smooth="yes"/>
      <point x="166" y="689"/>
      <point x="73" y="574"/>
      <point x="73" y="468" type="curve" smooth="yes"/>
      <point x="73" y="320"/>
      <point x="177" y="246"/>
      <point x="291" y="246" type="curve" smooth="yes"/>
      <point x="407" y="246"/>
      <point x="490" y="339"/>
      <point x="481" y="466" type="curve"/>
    </contour>
  </outline>
</glyph>
<glyph name="question" format="1">
  <advance width="500"/>
  <unicode hex="003F"/>
  <outline>
    <contour>
      <point x="83" y="514" type="line"/>
      <point x="112" y="640"/>
      <point x="195" y="690"/>
      <point x="280" y="690" type="curve" smooth="yes"/>
      <point x="360" y="690"/>
      <point x="408" y="640"/>
      <point x="408" y="572" type="curve" smooth="yes"/>
      <point x="408" y="490"/>
      <point x="331" y="405"/>
      <point x="301" y="359" type="curve" smooth="yes"/>
      <point x="258" y="293"/>
      <point x="253" y="226"/>
      <point x="279" y="226" type="curve" smooth="yes"/>
      <point x="292" y="226"/>
      <point x="315" y="229"/>
      <point x="326" y="236" type="curve"/>
      <point x="332" y="221" type="line"/>
      <point x="285" y="210"/>
      <point x="248" y="184"/>
      <point x="207" y="163" type="curve"/>
      <point x="199" y="174" type="line"/>
      <point x="192" y="194"/>
      <point x="187" y="208"/>
      <point x="187" y="225" type="curve" smooth="yes"/>
      <point x="187" y="277"/>
      <point x="209" y="314"/>
      <point x="245" y="365" type="curve" smooth="yes"/>
      <point x="297" y="437"/>
      <point x="310" y="496"/>
      <point x="310" y="540" type="curve" smooth="yes"/>
      <point x="310" y="589"/>
      <point x="274" y="623"/>
      <point x="219" y="623" type="curve" smooth="yes"/>
      <point x="180" y="623"/>
      <point x="119" y="596"/>
      <point x="106" y="508" type="curve"/>
    </contour>
    <component base="period" xOffset="147" yOffset="-1"/>
  </outline>
</glyph>
<glyph name="at" format="1">
  <advance width="794"/>
  <unicode hex="0040"/>
  <outline>
    <contour>
      <point x="360" y="542" type="line"/>
      <point x="287" y="339" type="line" smooth="yes"/>
      <point x="231" y="184"/>
      <point x="221" y="161"/>
      <point x="175" y="157" type="curve"/>
      <point x="175" y="148" type="line"/>
      <point x="191" y="150"/>
      <point x="217" y="153"/>
      <point x="239" y="153" type="curve" smooth="yes"/>
      <point x="254" y="153"/>
      <point x="296" y="150"/>
      <point x="312" y="148" type="curve"/>
      <point x="312" y="157" type="line"/>
      <point x="277" y="158"/>
      <point x="274" y="167"/>
      <point x="301" y="266" type="curve" smooth="yes"/>
      <point x="312" y="304"/>
      <point x="357" y="422"/>
      <point x="373" y="471" type="curve"/>
    </contour>
    <contour>
      <point x="431" y="242" type="curve" smooth="yes"/>
      <point x="457" y="168"/>
      <point x="447" y="157"/>
      <point x="413" y="157" type="curve"/>
      <point x="413" y="148" type="line"/>
      <point x="428" y="150"/>
      <point x="469" y="153"/>
      <point x="480" y="153" type="curve" smooth="yes"/>
      <point x="495" y="153"/>
      <point x="544" y="150"/>
      <point x="565" y="148" type="curve"/>
      <point x="565" y="157" type="line"/>
      <point x="534" y="158"/>
      <point x="520" y="175"/>
      <point x="500" y="221" type="curve" smooth="yes"/>
      <point x="449" y="341"/>
      <point x="406" y="443"/>
      <point x="367" y="542" type="curve"/>
      <point x="360" y="542" type="line"/>
      <point x="345" y="445" type="line"/>
      <point x="376" y="374"/>
      <point x="402" y="320"/>
    </contour>
    <contour>
      <point x="720" y="325" type="curve" smooth="yes"/>
      <point x="720.0" y="508.662790698"/>
      <point x="578.97752809" y="676.0"/>
      <point x="394" y="676" type="curve" smooth="yes"/>
      <point x="227" y="676"/>
      <point x="84" y="570"/>
      <point x="46" y="400" type="curve"/>
      <point x="64" y="395" type="line"/>
      <point x="93.5114524868" y="540.521989849"/>
      <point x="235.0" y="631.0"/>
      <point x="367" y="631" type="curve" smooth="yes"/>
      <point x="556.0" y="631.0"/>
      <point x="667.0" y="470.227154047"/>
      <point x="667" y="273" type="curve" smooth="yes"/>
      <point x="667.0" y="106.03514377"/>
      <point x="565" y="-62"/>
      <point x="376" y="-62" type="curve" smooth="yes"/>
      <point x="232" y="-62"/>
      <point x="104" y="20"/>
      <point x="104" y="135" type="curve" smooth="yes"/>
      <point x="104" y="280"/>
      <point x="236.580554646" y="330.156509461"/>
      <point x="438" y="255" type="curve"/>
      <point x="438" y="288" type="line"/>
      <point x="384.195339579" y="306.931269408"/>
      <point x="331.999302911" y="316.000014832"/>
      <point x="285" y="317" type="curve" smooth="yes"/>
      <point x="151.994835979" y="319.000077654"/>
      <point x="57.0" y="241.659090909"/>
      <point x="57" y="113" type="curve" smooth="yes"/>
      <point x="57.0" y="-12.9836065574"/>
      <point x="160" y="-99"/>
      <point x="335" y="-99" type="curve" smooth="yes"/>
      <point x="565" y="-99"/>
      <point x="720.0" y="56.9540229885"/>
    </contour>
  </outline>
</glyph>
<glyph name="A" format="1">
  <advance width="675"/>
  <unicode hex="0041"/>
  <outline>
    <contour>
      <point x="326" y="694" type="line"/>
      <point x="193" y="334" type="line" smooth="yes"/>
      <point x="92" y="60"/>
      <point x="80" y="19"/>
      <point x="0" y="12" type="curve"/>
      <point x="0" y="-4" type="line"/>
      <point x="31.7125327494" y="0.530361821343"/>
      <point x="81.7297297297" y="4.0"/>
      <point x="126" y="4" type="curve" smooth="yes"/>
      <point x="148.023809524" y="4.0"/>
      <point x="212.262264543" y="-0.466037791814"/>
      <point x="237" y="-4" type="curve"/>
      <point x="237" y="12" type="line"/>
      <point x="177" y="14"/>
      <point x="171" y="29"/>
      <point x="218" y="205" type="curve" smooth="yes"/>
      <point x="236.044569995" y="273.168375535"/>
      <point x="322.0179077" y="482.057702587"/>
      <point x="349" y="569" type="curve"/>
    </contour>
    <contour>
      <point x="442" y="162" type="curve" smooth="yes"/>
      <point x="488" y="31"/>
      <point x="470" y="12"/>
      <point x="411" y="12" type="curve"/>
      <point x="411" y="-4" type="line"/>
      <point x="438" y="0"/>
      <point x="509" y="4"/>
      <point x="527" y="4" type="curve" smooth="yes"/>
      <point x="554" y="4"/>
      <point x="638" y="0"/>
      <point x="675" y="-4" type="curve"/>
      <point x="675" y="12" type="line"/>
      <point x="620" y="14"/>
      <point x="596" y="44"/>
      <point x="562" y="125" type="curve" smooth="yes"/>
      <point x="473.387463716" y="337.072699197"/>
      <point x="407.042547779" y="520.893322235"/>
      <point x="338" y="694" type="curve"/>
      <point x="326" y="694" type="line"/>
      <point x="301" y="522" type="line"/>
      <point x="354.058653551" y="397.862772823"/>
      <point x="393.124852944" y="300.645825323"/>
    </contour>
    <contour>
      <point x="186" y="176" type="line"/>
      <point x="219" y="177"/>
      <point x="269" y="179"/>
      <point x="319" y="179" type="curve" smooth="yes"/>
      <point x="358" y="179"/>
      <point x="417" y="177"/>
      <point x="449" y="176" type="curve"/>
      <point x="449" y="237" type="line"/>
      <point x="416" y="235"/>
      <point x="378" y="233"/>
      <point x="318" y="233" type="curve" smooth="yes"/>
      <point x="277" y="233"/>
      <point x="219" y="235"/>
      <point x="186" y="236" type="curve"/>
    </contour>
  </outline>
</glyph>
<glyph name="C" format="1">
  <advance width="702"/>
  <unicode hex="0043"/>
  <outline>
    <contour>
      <point x="534" y="-10"/>
      <point x="588.0" y="0.0"/>
      <point x="607" y="0" type="curve"/>
      <point x="607" y="5" type="line" smooth="yes"/>
      <point x="607" y="26.4970414201"/>
      <point x="606.273511266" y="72.7991664819"/>
      <point x="641" y="178" type="curve"/>
      <point x="625" y="184" type="line"/>
      <point x="607.999950451" y="85.9997143645"/>
      <point x="566.0" y="44.0"/>
      <point x="461" y="44" type="curve" smooth="yes"/>
      <point x="299.0" y="44.0"/>
      <point x="176" y="173"/>
      <point x="176" y="365" type="curve" smooth="yes"/>
      <point x="176" y="546"/>
      <point x="278.231707317" y="629.0"/>
      <point x="425" y="629" type="curve" smooth="yes"/>
      <point x="485.58917226" y="629.0"/>
      <point x="543.863303523" y="616.102522358"/>
      <point x="576" y="592" type="curve" smooth="yes"/>
      <point x="608" y="568"/>
      <point x="616" y="531"/>
      <point x="614" y="475" type="curve"/>
      <point x="629" y="477" type="line"/>
      <point x="618" y="574"/>
      <point x="621.999960834" y="646.999878149"/>
      <point x="631" y="675" type="curve"/>
      <point x="622" y="676" type="line"/>
      <point x="616" y="673"/>
      <point x="602" y="673"/>
      <point x="592" y="673" type="curve" smooth="yes"/>
      <point x="565.483443709" y="673.0"/>
      <point x="488.999999999" y="684.0"/>
      <point x="438" y="684" type="curve" smooth="yes"/>
      <point x="176.145454545" y="684.0"/>
      <point x="59" y="523"/>
      <point x="59" y="349" type="curve" smooth="yes"/>
      <point x="59" y="155"/>
      <point x="190" y="-10"/>
      <point x="468" y="-10" type="curve" smooth="yes"/>
    </contour>
    <component base="c" xOffset="-12"/>
  </outline>
</glyph>
<glyph name="D" format="1">
  <advance width="767"/>
  <unicode hex="0044"/>
  <outline>
    <contour>
      <point x="182" y="605" type="curve"/>
      <point x="205.935576317" y="609.986578399"/>
      <point x="261" y="619"/>
      <point x="299" y="619" type="curve" smooth="yes"/>
      <point x="501" y="619"/>
      <point x="614" y="519"/>
      <point x="614" y="312" type="curve" smooth="yes"/>
      <point x="614.0" y="164.255639098"/>
      <point x="521.0" y="50.0"/>
      <point x="363" y="50" type="curve" smooth="yes"/>
      <point x="274" y="50"/>
      <point x="235" y="72"/>
      <point x="222" y="81" type="curve"/>
      <point x="147" y="2" type="line"/>
      <point x="204.0" y="2.0"/>
      <point x="282.0" y="-4.0"/>
      <point x="361" y="-4" type="curve" smooth="yes"/>
      <point x="579.0" y="-4.0"/>
      <point x="730.0" y="130.484679666"/>
      <point x="730" y="351" type="curve" smooth="yes"/>
      <point x="730.0" y="566.0"/>
      <point x="574.56608349" y="674.0"/>
      <point x="321" y="674" type="curve" smooth="yes"/>
      <point x="262" y="674"/>
      <point x="243" y="672"/>
      <point x="190" y="672" type="curve"/>
      <point x="190.0" y="662.428571429"/>
      <point x="182.0" y="617.808823529"/>
    </contour>
    <contour>
      <point x="246" y="4" type="line"/>
      <point x="244" y="53"/>
      <point x="240" y="100"/>
      <point x="240" y="338" type="curve" smooth="yes"/>
      <point x="240" y="600"/>
      <point x="243" y="634"/>
      <point x="244" y="672" type="curve"/>
      <point x="190" y="672" type="line"/>
      <point x="158.126760563" y="672.0"/>
      <point x="88.1953272333" y="674.861008461"/>
      <point x="44" y="680" type="curve"/>
      <point x="44" y="666" type="line"/>
      <point x="134.751548295" y="657.655030042"/>
      <point x="140" y="644.0"/>
      <point x="140" y="424" type="curve" smooth="yes"/>
      <point x="140" y="248" type="line" smooth="yes"/>
      <point x="140" y="38.0"/>
      <point x="131.666326566" y="17.2730243187"/>
      <point x="34" y="10" type="curve"/>
      <point x="34" y="-4" type="line"/>
      <point x="82.712585793" y="0.145751982379"/>
      <point x="109.678899083" y="2.0"/>
      <point x="147" y="2" type="curve"/>
    </contour>
  </outline>
</glyph>
<glyph name="E" format="1">
  <advance width="603"/>
  <unicode hex="0045"/>
  <outline>
    <contour>
      <point x="190" y="605" type="line" name=""/>
      <point x="209.822200652" y="607.973330098"/>
      <point x="268.281818182" y="616.0"/>
      <point x="299" y="616" type="curve" smooth="yes" name=""/>
      <point x="452.746341463" y="616.0"/>
      <point x="495" y="595"/>
      <point x="505" y="475" type="curve" name=""/>
      <point x="520" y="478" type="line" name=""/>
      <point x="503" y="566"/>
      <point x="496.695155518" y="623.24044866"/>
      <point x="506" y="680" type="curve" name=""/>
      <point x="498" y="681" type="line" name=""/>
      <point x="485" y="672"/>
      <point x="468" y="669"/>
      <point x="362" y="669" type="curve" name=""/>
      <point x="214" y="666" type="line" name=""/>
    </contour>
    <contour>
      <point x="204" y="323" type="line"/>
      <point x="218.428615061" y="324.030615361"/>
      <point x="257.6" y="326.0"/>
      <point x="271" y="326" type="curve" smooth="yes"/>
      <point x="330.421428571" y="326.0"/>
      <point x="378.836634744" y="321.108910171"/>
      <point x="412" y="299" type="curve" smooth="yes"/>
      <point x="433.271768623" y="285.831762281"/>
      <point x="449.925567801" y="264.14102943"/>
      <point x="469" y="228" type="curve"/>
      <point x="482" y="236" type="line"/>
      <point x="442" y="294"/>
      <point x="423" y="356"/>
      <point x="410" y="392" type="curve" smooth="yes"/>
      <point x="396.286717093" y="429.975244974"/>
      <point x="389.315152155" y="460.319188507"/>
      <point x="383" y="494" type="curve"/>
      <point x="368" y="493" type="line"/>
      <point x="397.148298035" y="403.473084606"/>
      <point x="359.211764706" y="383.0"/>
      <point x="285" y="383" type="curve" smooth="yes"/>
      <point x="259.367088608" y="383.0"/>
      <point x="218.352653342" y="385.974810476"/>
      <point x="204" y="387" type="curve"/>
    </contour>
    <contour>
      <point x="259.0" y="4.0"/>
      <point x="389.0228362" y="3.99927504128"/>
      <point x="515" y="0" type="curve"/>
      <point x="517" y="14" type="line"/>
      <point x="517.888937598" y="53.1132543301"/>
      <point x="540.368295602" y="138.811680606"/>
      <point x="553" y="174" type="curve"/>
      <point x="538" y="180" type="line"/>
      <point x="520" y="83"/>
      <point x="476.364705882" y="57.0"/>
      <point x="369" y="57" type="curve" smooth="yes"/>
      <point x="312.397849462" y="57.0"/>
      <point x="251.667944603" y="64.7614483559"/>
      <point x="181" y="90" type="curve"/>
      <point x="144" y="4" type="line"/>
    </contour>
    <contour>
      <point x="207" y="4" type="curve"/>
      <point x="241" y="37" type="line"/>
      <point x="240" y="148"/>
      <point x="238" y="255"/>
      <point x="242" y="342" type="curve"/>
      <point x="241" y="364" type="line"/>
      <point x="238" y="476"/>
      <point x="239" y="569"/>
      <point x="243" y="640" type="curve"/>
      <point x="362" y="643" type="line"/>
      <point x="362" y="669" type="line"/>
      <point x="320" y="669"/>
      <point x="140" y="670"/>
      <point x="42" y="680" type="curve"/>
      <point x="42" y="665" type="line"/>
      <point x="131" y="662"/>
      <point x="140" y="632"/>
      <point x="140" y="420" type="curve" smooth="yes"/>
      <point x="140" y="245" type="line" smooth="yes"/>
      <point x="140" y="38"/>
      <point x="132" y="13"/>
      <point x="38" y="12" type="curve"/>
      <point x="38" y="-4" type="line"/>
      <point x="91" y="0"/>
      <point x="133" y="4"/>
    </contour>
  </outline>
</glyph>
<glyph name="F" format="1">
  <advance width="565"/>
  <unicode hex="0046"/>
  <outline>
    <contour>
      <point x="342" y="-4" type="curve"/>
      <point x="342" y="12" type="line"/>
      <point x="250" y="17"/>
      <point x="240" y="38"/>
      <point x="240" y="248" type="curve" smooth="yes"/>
      <point x="240" y="362" type="line"/>
      <point x="140" y="361" type="line"/>
      <point x="140" y="250" type="line" smooth="yes"/>
      <point x="140" y="40"/>
      <point x="132" y="19"/>
      <point x="38" y="12" type="curve"/>
      <point x="38" y="-4" type="line"/>
      <point x="91" y="0"/>
      <point x="151" y="4"/>
      <point x="190" y="4" type="curve" smooth="yes"/>
      <point x="229" y="4"/>
      <point x="291" y="0"/>
    </contour>
    <contour>
      <point x="240.0" y="362.0" type="line"/>
      <point x="237.0" y="461.0"/>
      <point x="239.0" y="541.0"/>
      <point x="240.0" y="622.0" type="curve"/>
      <point x="316" y="638" type="line"/>
      <point x="316" y="672" type="line"/>
      <point x="244" y="672"/>
      <point x="137" y="672"/>
      <point x="48.0" y="680.0" type="curve"/>
      <point x="48.0" y="666.0" type="line"/>
      <point x="134.0" y="656.0"/>
      <point x="140.0" y="637.0"/>
      <point x="140.0" y="424.0" type="curve" smooth="yes"/>
      <point x="140.0" y="361.0" type="line"/>
    </contour>
    <contour>
      <point x="197" y="611" type="line"/>
      <point x="217" y="614"/>
      <point x="280" y="619"/>
      <point x="303" y="619" type="curve" smooth="yes"/>
      <point x="445" y="619"/>
      <point x="484" y="600"/>
      <point x="499" y="459" type="curve"/>
      <point x="514" y="462" type="line"/>
      <point x="495" y="568"/>
      <point x="493" y="633"/>
      <point x="495" y="680" type="curve"/>
      <point x="487" y="681" type="line"/>
      <point x="467" y="676"/>
      <point x="414" y="672"/>
      <point x="316" y="672" type="curve"/>
      <point x="188" y="672" type="line"/>
      <point x="188" y="639" type="line"/>
    </contour>
    <contour>
      <point x="204" y="323" type="line"/>
      <point x="218" y="324"/>
      <point x="256" y="326"/>
      <point x="269" y="326" type="curve" smooth="yes"/>
      <point x="328" y="326"/>
      <point x="377" y="321"/>
      <point x="410" y="299" type="curve" smooth="yes"/>
      <point x="432" y="285"/>
      <point x="449" y="264"/>
      <point x="469" y="228" type="curve"/>
      <point x="484" y="235" type="line"/>
      <point x="447" y="286"/>
      <point x="425" y="344"/>
      <point x="410" y="392" type="curve" smooth="yes"/>
      <point x="398" y="428"/>
      <point x="391" y="458"/>
      <point x="385" y="490" type="curve"/>
      <point x="368" y="489" type="line"/>
      <point x="396" y="402"/>
      <point x="359" y="383"/>
      <point x="283" y="383" type="curve" smooth="yes"/>
      <point x="258" y="383"/>
      <point x="218" y="386"/>
      <point x="204" y="387" type="curve"/>
    </contour>
  </outline>
</glyph>
<glyph name="G" format="1">
  <advance width="795"/>
  <unicode hex="0047"/>
  <outline>
    <contour>
      <point x="643" y="154" type="curve" smooth="yes"/>
      <point x="643.0" y="265.971830986"/>
      <point x="651.954092111" y="296.994731882"/>
      <point x="713.0" y="304.0" type="curve"/>
      <point x="713.0" y="317.0" type="line"/>
      <point x="663.0" y="311.0"/>
      <point x="639.0" y="308.0"/>
      <point x="593.0" y="308.0" type="curve" smooth="yes"/>
      <point x="545.0" y="308.0"/>
      <point x="490.0" y="311.0"/>
      <point x="452.0" y="317.0" type="curve"/>
      <point x="452.0" y="302.0" type="line"/>
      <point x="539.0" y="297.0"/>
      <point x="552.0" y="271.0"/>
      <point x="552.0" y="128.0" type="curve" smooth="yes"/>
      <point x="552.0" y="103.0"/>
      <point x="551" y="83"/>
      <point x="550" y="62" type="curve"/>
      <point x="536" y="45"/>
      <point x="504" y="30"/>
      <point x="444" y="23" type="curve"/>
      <point x="444" y="-10" type="line"/>
      <point x="491" y="-10"/>
      <point x="528" y="-3"/>
      <point x="574" y="5" type="curve" smooth="yes"/>
      <point x="604" y="10"/>
      <point x="630" y="14"/>
      <point x="647" y="17" type="curve"/>
      <point x="647" y="35" type="line"/>
      <point x="643" y="57"/>
      <point x="643.0" y="109.096774194"/>
    </contour>
    <contour>
      <point x="547" y="2" type="curve" smooth="yes"/>
      <point x="613.508588263" y="15.8973169505"/>
      <point x="633.158060498" y="29.3724821955"/>
      <point x="638" y="148" type="curve"/>
      <point x="622" y="152" type="line"/>
      <point x="588" y="80"/>
      <point x="550.609625668" y="44.0"/>
      <point x="444" y="44" type="curve" smooth="yes"/>
      <point x="283" y="44"/>
      <point x="176" y="178"/>
      <point x="176" y="365" type="curve" smooth="yes"/>
      <point x="176" y="548"/>
      <point x="289" y="629"/>
      <point x="428" y="629" type="curve" smooth="yes"/>
      <point x="495.0" y="629.0"/>
      <point x="560.098982456" y="607.56554386"/>
      <point x="596" y="578" type="curve" smooth="yes"/>
      <point x="627.444172601" y="553.434240155"/>
      <point x="635.90710258" y="507.445320943"/>
      <point x="634" y="455" type="curve"/>
      <point x="651" y="457" type="line"/>
      <point x="639.505114219" y="569.858878574"/>
      <point x="645.675276187" y="629.036897946"/>
      <point x="655" y="669" type="curve"/>
      <point x="648" y="670" type="line"/>
      <point x="641.440305968" y="666.720152984"/>
      <point x="628.666666667" y="667.0"/>
      <point x="619" y="667" type="curve" smooth="yes"/>
      <point x="591.345679012" y="667.0"/>
      <point x="512.333333333" y="684.0"/>
      <point x="459" y="684" type="curve" smooth="yes"/>
      <point x="193" y="684"/>
      <point x="59" y="526"/>
      <point x="59" y="338" type="curve" smooth="yes"/>
      <point x="59" y="124"/>
      <point x="218" y="-10"/>
      <point x="444" y="-10" type="curve" smooth="yes"/>
      <point x="479" y="-10"/>
      <point x="517" y="-4"/>
    </contour>
  </outline>
</glyph>
<glyph name="H" format="1">
  <advance width="803"/>
  <unicode hex="0048"/>
  <outline>
    <contour>
      <point x="765" y="-4" type="curve"/>
      <point x="765" y="12" type="line"/>
      <point x="673" y="17"/>
      <point x="663" y="38"/>
      <point x="663" y="248" type="curve" smooth="yes"/>
      <point x="663" y="424" type="line" smooth="yes"/>
      <point x="663" y="637"/>
      <point x="671" y="656"/>
      <point x="755" y="666" type="curve"/>
      <point x="755" y="680" type="line"/>
      <point x="714" y="675"/>
      <point x="644" y="672"/>
      <point x="613" y="672" type="curve" smooth="yes"/>
      <point x="582" y="672"/>
      <point x="514" y="675"/>
      <point x="471" y="680" type="curve"/>
      <point x="471" y="666" type="line"/>
      <point x="557" y="656"/>
      <point x="563" y="637"/>
      <point x="563" y="424" type="curve" smooth="yes"/>
      <point x="563" y="392" type="line"/>
      <point x="524" y="389"/>
      <point x="478" y="388"/>
      <point x="409" y="388" type="curve" smooth="yes"/>
      <point x="358" y="388"/>
      <point x="281" y="390"/>
      <point x="240" y="392" type="curve"/>
      <point x="240" y="424" type="line" smooth="yes"/>
      <point x="240" y="637"/>
      <point x="248" y="656"/>
      <point x="332" y="666" type="curve"/>
      <point x="332" y="680" type="line"/>
      <point x="291" y="675"/>
      <point x="221" y="672"/>
      <point x="190" y="672" type="curve" smooth="yes"/>
      <point x="159" y="672"/>
      <point x="91" y="675"/>
      <point x="48" y="680" type="curve"/>
      <point x="48" y="666" type="line"/>
      <point x="134" y="656"/>
      <point x="140" y="637"/>
      <point x="140" y="424" type="curve" smooth="yes"/>
      <point x="140" y="248" type="line" smooth="yes"/>
      <point x="140" y="38"/>
      <point x="132" y="17"/>
      <point x="38" y="10" type="curve"/>
      <point x="38" y="-4" type="line"/>
      <point x="91" y="0"/>
      <point x="151" y="4"/>
      <point x="190" y="4" type="curve" smooth="yes"/>
      <point x="229" y="4"/>
      <point x="291" y="0"/>
      <point x="342" y="-4" type="curve"/>
      <point x="342" y="12" type="line"/>
      <point x="250" y="17"/>
      <point x="240" y="38"/>
      <point x="240" y="248" type="curve" smooth="yes"/>
      <point x="240" y="328" type="line"/>
      <point x="283" y="329"/>
      <point x="332" y="331"/>
      <point x="393" y="331" type="curve" smooth="yes"/>
      <point x="466" y="331"/>
      <point x="521" y="330"/>
      <point x="563" y="329" type="curve"/>
      <point x="563" y="248" type="line" smooth="yes"/>
      <point x="563" y="38"/>
      <point x="555" y="17"/>
      <point x="461" y="10" type="curve"/>
      <point x="461" y="-4" type="line"/>
      <point x="514" y="0"/>
      <point x="574" y="4"/>
      <point x="613" y="4" type="curve" smooth="yes"/>
      <point x="652" y="4"/>
      <point x="714" y="0"/>
    </contour>
  </outline>
</glyph>
<glyph name="J" format="1">
  <advance width="522"/>
  <unicode hex="004A"/>
  <outline>
    <contour>
      <point x="200" y="42" type="curve" smooth="yes"/>
      <point x="265" y="42"/>
      <point x="304" y="85.25"/>
      <point x="304" y="215" type="curve" smooth="yes"/>
      <point x="304" y="356" type="line"/>
      <point x="404" y="356" type="line"/>
      <point x="404" y="193" type="line" smooth="yes"/>
      <point x="404" y="33.6113744076"/>
      <point x="308" y="-6"/>
      <point x="205" y="-6" type="curve" smooth="yes"/>
      <point x="166" y="-6"/>
      <point x="98.8045112782" y="2.0"/>
      <point x="73" y="2" type="curve" smooth="yes"/>
      <point x="59" y="2"/>
      <point x="50" y="-1"/>
      <point x="47" y="-4" type="curve"/>
      <point x="38" y="-1" type="line"/>
      <point x="44" y="13"/>
      <point x="49.8446947698" y="85.5207293013"/>
      <point x="16" y="199" type="curve"/>
      <point x="30" y="204" type="line"/>
      <point x="48.2223730599" y="84.5422210516"/>
      <point x="134" y="42"/>
    </contour>
    <contour>
      <point x="404" y="424" type="curve" smooth="yes"/>
      <point x="404" y="320" type="line"/>
      <point x="304" y="320" type="line"/>
      <point x="304" y="424" type="line" smooth="yes"/>
      <point x="304" y="638"/>
      <point x="292" y="662"/>
      <point x="200" y="666" type="curve"/>
      <point x="200" y="680" type="line"/>
      <point x="245" y="675"/>
      <point x="322" y="672"/>
      <point x="354" y="672" type="curve" smooth="yes"/>
      <point x="385" y="672"/>
      <point x="455" y="675"/>
      <point x="496" y="680" type="curve"/>
      <point x="496" y="666" type="line"/>
      <point x="414" y="662"/>
      <point x="404" y="638"/>
    </contour>
  </outline>
</glyph>
<glyph name="L" format="1">
  <advance width="564"/>
  <unicode hex="004C"/>
  <outline>
    <contour>
      <point x="181" y="4" type="line"/>
      <point x="330.0" y="4.0"/>
      <point x="414.0" y="2.0"/>
      <point x="508" y="0" type="curve"/>
      <point x="510" y="14" type="line"/>
      <point x="514.0" y="71.0"/>
      <point x="526.0" y="144.0"/>
      <point x="540" y="194" type="curve"/>
      <point x="523" y="200" type="line"/>
      <point x="508" y="87"/>
      <point x="466" y="55"/>
      <point x="375" y="55" type="curve" smooth="yes"/>
      <point x="311" y="55"/>
      <point x="257" y="60"/>
      <point x="181" y="86" type="curve"/>
    </contour>
    <contour>
      <point x="38" y="-4" type="line"/>
      <point x="95.6775958658" y="0.80646632215"/>
      <point x="145" y="4"/>
      <point x="204" y="4" type="curve"/>
      <point x="247" y="4" type="line"/>
      <point x="242.001547074" y="114.965654954"/>
      <point x="242.0" y="234.0"/>
      <point x="242" y="361" type="curve" smooth="yes"/>
      <point x="242" y="648"/>
      <point x="251" y="657"/>
      <point x="332" y="666" type="curve"/>
      <point x="332" y="680" type="line"/>
      <point x="291" y="675"/>
      <point x="221" y="672"/>
      <point x="190" y="672" type="curve" smooth="yes"/>
      <point x="159" y="672"/>
      <point x="91" y="675"/>
      <point x="48" y="680" type="curve"/>
      <point x="48" y="666" type="line"/>
      <point x="134" y="656"/>
      <point x="140" y="637"/>
      <point x="140" y="424" type="curve" smooth="yes"/>
      <point x="140" y="292" type="line" smooth="yes"/>
      <point x="140" y="44"/>
      <point x="132" y="17"/>
      <point x="38" y="10" type="curve"/>
    </contour>
  </outline>
</glyph>
<glyph name="M" format="1">
  <advance width="945"/>
  <unicode hex="004D"/>
  <outline>
    <contour>
      <point x="458" y="10" type="line"/>
      <point x="492" y="166" type="line"/>
      <point x="476" y="196"/>
      <point x="455" y="238"/>
      <point x="433" y="281" type="curve" smooth="yes"/>
      <point x="337.387703024" y="468.322051219"/>
      <point x="271.997419556" y="641.930328007"/>
      <point x="273" y="669" type="curve"/>
      <point x="160" y="632" type="line"/>
      <point x="170" y="609" type="line"/>
      <point x="208.861378408" y="531.277243185"/>
      <point x="317.518252478" y="300.973369388"/>
      <point x="378" y="164" type="curve" smooth="yes"/>
      <point x="446" y="10" type="line"/>
    </contour>
    <contour>
      <point x="458" y="10" type="line"/>
      <point x="497" y="128"/>
      <point x="700" y="559"/>
      <point x="717" y="587" type="curve"/>
      <point x="702" y="656" type="line"/>
      <point x="651" y="670" type="line"/>
      <point x="650" y="630"/>
      <point x="620" y="543"/>
      <point x="580" y="448" type="curve" smooth="yes"/>
      <point x="534" y="339"/>
      <point x="475" y="219"/>
      <point x="437" y="147" type="curve"/>
    </contour>
    <contour>
      <point x="670" y="614" type="line"/>
      <point x="686.02143728" y="486.829841588"/>
      <point x="695.999966611" y="355.002070111"/>
      <point x="697" y="293" type="curve" smooth="yes"/>
      <point x="702.000169983" y="35.9912628847"/>
      <point x="700.099221406" y="17.1823071415"/>
      <point x="612" y="12" type="curve"/>
      <point x="612" y="-4" type="line"/>
      <point x="648.746127949" y="0.0829031054522"/>
      <point x="711.034965035" y="4.0"/>
      <point x="758" y="4" type="curve" smooth="yes"/>
      <point x="801.11409396" y="4.0"/>
      <point x="869.69552032" y="-0.079488036537"/>
      <point x="904" y="-4" type="curve"/>
      <point x="904" y="12" type="line"/>
      <point x="809.588175338" y="17.8399066801"/>
      <point x="799.97119338" y="31.0109755778"/>
      <point x="795" y="263" type="curve" smooth="yes"/>
      <point x="792" y="403" type="line" smooth="yes"/>
      <point x="786.771438972" y="646.999514636"/>
      <point x="795.891855374" y="653.243506137"/>
      <point x="895" y="666" type="curve"/>
      <point x="895" y="680" type="line"/>
      <point x="861" y="675"/>
      <point x="797" y="666"/>
      <point x="731" y="666" type="curve" smooth="yes"/>
      <point x="693" y="666"/>
      <point x="667" y="668"/>
      <point x="651" y="670" type="curve"/>
      <point x="656" y="642" type="line"/>
    </contour>
    <contour>
      <point x="282" y="-4" type="curve"/>
      <point x="282" y="12" type="line"/>
      <point x="205.0" y="17.0"/>
      <point x="197.666879917" y="43.0083167594"/>
      <point x="204" y="290" type="curve" smooth="yes"/>
      <point x="205" y="329" type="line" smooth="yes"/>
      <point x="209" y="487"/>
      <point x="219.982984115" y="553.804317321"/>
      <point x="224" y="600" type="curve"/>
      <point x="273" y="669" type="line"/>
      <point x="249" y="665"/>
      <point x="229" y="666"/>
      <point x="196" y="666" type="curve" smooth="yes"/>
      <point x="158.0" y="666.0"/>
      <point x="74.9678879759" y="674.005207355"/>
      <point x="38" y="680" type="curve"/>
      <point x="38" y="666" type="line"/>
      <point x="139.144529857" y="653.71141226"/>
      <point x="147" y="644"/>
      <point x="140" y="403" type="curve" smooth="yes"/>
      <point x="138" y="331" type="line" smooth="yes"/>
      <point x="129.833460525" y="37.0045788911"/>
      <point x="108" y="15"/>
      <point x="23" y="12" type="curve"/>
      <point x="23" y="-4" type="line"/>
      <point x="66.0582287821" y="-0.0856155652659"/>
      <point x="115.949640288" y="4.0"/>
      <point x="159" y="4" type="curve" smooth="yes"/>
      <point x="200.0" y="4.0"/>
      <point x="246.13614538" y="0.0987262422642"/>
    </contour>
  </outline>
</glyph>
<glyph name="N" format="1">
  <advance width="788"/>
  <unicode hex="004E"/>
  <outline>
    <contour>
      <point x="673" y="71" type="line"/>
      <point x="673" y="353" type="line" smooth="yes"/>
      <point x="673" y="639"/>
      <point x="680" y="659"/>
      <point x="764" y="666" type="curve"/>
      <point x="764" y="680" type="line"/>
      <point x="737" y="676"/>
      <point x="672" y="672"/>
      <point x="638" y="672" type="curve" smooth="yes"/>
      <point x="607" y="672"/>
      <point x="537" y="676"/>
      <point x="507" y="680" type="curve"/>
      <point x="507" y="666" type="line"/>
      <point x="594" y="654"/>
      <point x="610" y="631"/>
      <point x="610" y="403" type="curve" smooth="yes"/>
      <point x="610" y="330"/>
      <point x="606" y="133"/>
      <point x="603" y="91" type="curve"/>
    </contour>
    <contour>
      <point x="659" y="-24" type="curve"/>
      <point x="673" y="-24" type="line"/>
      <point x="672" y="15"/>
      <point x="673" y="99"/>
      <point x="673" y="248" type="curve"/>
      <point x="667.394144148" y="253.605855852"/>
      <point x="639.732460898" y="252.678953078"/>
      <point x="635" y="247" type="curve"/>
      <point x="635" y="189"/>
      <point x="639" y="169"/>
      <point x="632" y="177" type="curve" smooth="yes"/>
      <point x="548.109860752" y="274.029558649"/>
      <point x="498" y="326"/>
      <point x="446" y="387" type="curve" smooth="yes"/>
      <point x="303.676209797" y="555.383075733"/>
      <point x="249" y="637"/>
      <point x="236" y="672" type="curve"/>
      <point x="220.612521913" y="666.504472112"/>
      <point x="199.333333333" y="666.0"/>
      <point x="176" y="666" type="curve"/>
      <point x="158" y="606" type="line"/>
      <point x="183" y="545" type="line"/>
      <point x="287.161684606" y="422.63530255"/>
      <point x="442" y="247"/>
      <point x="537" y="133" type="curve" smooth="yes"/>
      <point x="598" y="58"/>
      <point x="643" y="4"/>
    </contour>
    <contour>
      <point x="302" y="-4" type="curve"/>
      <point x="302" y="12" type="line"/>
      <point x="208" y="26"/>
      <point x="203" y="56"/>
      <point x="203" y="265" type="curve" smooth="yes"/>
      <point x="203" y="313"/>
      <point x="206" y="486"/>
      <point x="210" y="588" type="curve"/>
      <point x="195" y="666" type="line"/>
      <point x="176" y="666" type="line" smooth="yes"/>
      <point x="125.937888199" y="666"/>
      <point x="60.2514688485" y="674.967760404"/>
      <point x="21" y="680" type="curve"/>
      <point x="21" y="666" type="line"/>
      <point x="123" y="656"/>
      <point x="140" y="628"/>
      <point x="140" y="400" type="curve" smooth="yes"/>
      <point x="140" y="287" type="line" smooth="yes"/>
      <point x="140" y="56"/>
      <point x="132" y="17"/>
      <point x="36" y="12" type="curve"/>
      <point x="36" y="-4" type="line"/>
      <point x="72" y="0"/>
      <point x="132" y="4"/>
      <point x="173" y="4" type="curve" smooth="yes"/>
      <point x="214" y="4"/>
      <point x="266" y="0"/>
    </contour>
  </outline>
</glyph>
<glyph name="P" format="1">
  <advance width="601"/>
  <unicode hex="0050"/>
  <outline>
    <contour>
      <point x="195" y="609" type="line"/>
      <point x="211" y="613"/>
      <point x="249" y="624"/>
      <point x="301" y="624" type="curve" smooth="yes"/>
      <point x="401" y="624"/>
      <point x="471.0" y="563.657142857"/>
      <point x="471" y="459" type="curve" smooth="yes"/>
      <point x="471" y="359"/>
      <point x="407" y="288"/>
      <point x="336" y="288" type="curve" smooth="yes"/>
      <point x="322" y="288"/>
      <point x="312" y="289"/>
      <point x="304" y="291" type="curve"/>
      <point x="301" y="279" type="line"/>
      <point x="315" y="275"/>
      <point x="342" y="269"/>
      <point x="367" y="269" type="curve" smooth="yes"/>
      <point x="475" y="269"/>
      <point x="577" y="344"/>
      <point x="577" y="488" type="curve" smooth="yes"/>
      <point x="577" y="623"/>
      <point x="453" y="676"/>
      <point x="323" y="676" type="curve" smooth="yes"/>
      <point x="283.751879699" y="676.0"/>
      <point x="234.691729323" y="672.0"/>
      <point x="178" y="672" type="curve"/>
    </contour>
    <contour>
      <point x="342" y="-4" type="curve"/>
      <point x="342" y="12" type="line"/>
      <point x="250" y="17"/>
      <point x="240" y="38"/>
      <point x="240" y="248" type="curve" smooth="yes"/>
      <point x="240" y="338" type="line"/>
      <point x="140" y="338" type="line"/>
      <point x="140" y="248" type="line" smooth="yes"/>
      <point x="140" y="38"/>
      <point x="132" y="17"/>
      <point x="38" y="10" type="curve"/>
      <point x="38" y="-4" type="line"/>
      <point x="91" y="0"/>
      <point x="151" y="4"/>
      <point x="190" y="4" type="curve" smooth="yes"/>
      <point x="229" y="4"/>
      <point x="291" y="0"/>
    </contour>
    <contour>
      <point x="240" y="317" type="line"/>
      <point x="240" y="436"/>
      <point x="241" y="573"/>
      <point x="244" y="672" type="curve"/>
      <point x="178" y="672" type="line"/>
      <point x="149.61971831" y="672.0"/>
      <point x="87.4168784967" y="675.416642035"/>
      <point x="48" y="680" type="curve"/>
      <point x="48" y="666" type="line"/>
      <point x="134" y="656"/>
      <point x="140" y="637"/>
      <point x="140" y="424" type="curve" smooth="yes"/>
      <point x="140" y="317" type="line"/>
    </contour>
  </outline>
</glyph>
<glyph name="S" format="1">
  <advance width="528"/>
  <unicode hex="0053"/>
  <outline>
    <contour>
      <point x="283" y="683" type="curve" smooth="yes"/>
      <point x="335.8125" y="683.0"/>
      <point x="391.671875" y="672.0"/>
      <point x="413" y="672" type="curve" smooth="yes"/>
      <point x="424" y="672"/>
      <point x="433" y="673"/>
      <point x="438" y="676" type="curve"/>
      <point x="447" y="675" type="line"/>
      <point x="440.198766011" y="648.766668899"/>
      <point x="432.037387406" y="567.763991998"/>
      <point x="448.0" y="467.0" type="curve"/>
      <point x="431" y="465" type="line"/>
      <point x="430.022408046" y="524.633109211"/>
      <point x="421" y="571"/>
      <point x="394" y="596" type="curve" smooth="yes"/>
      <point x="364" y="623"/>
      <point x="317.0" y="635.0"/>
      <point x="283" y="635" type="curve" smooth="yes"/>
      <point x="219.0" y="635.0"/>
      <point x="179.0" y="605.382978723"/>
      <point x="179" y="539" type="curve" smooth="yes"/>
      <point x="179" y="477"/>
      <point x="240" y="434"/>
      <point x="315" y="374" type="curve" smooth="yes"/>
      <point x="395.0" y="312.0"/>
      <point x="471" y="270"/>
      <point x="471" y="169" type="curve" smooth="yes"/>
      <point x="471" y="52"/>
      <point x="387" y="-18"/>
      <point x="243" y="-18" type="curve" smooth="yes"/>
      <point x="201" y="-18"/>
      <point x="160.167054094" y="-10.0250581142"/>
      <point x="140" y="-7" type="curve" smooth="yes"/>
      <point x="118.047115614" y="-4.00642485647"/>
      <point x="91.6376811594" y="0.0"/>
      <point x="69" y="0" type="curve"/>
      <point x="73.9920476244" y="46.925247669"/>
      <point x="81.7946457084" y="121.812860737"/>
      <point x="58" y="216" type="curve"/>
      <point x="75" y="220" type="line"/>
      <point x="88.0000690172" y="71.9992142652"/>
      <point x="168" y="32"/>
      <point x="253" y="32" type="curve" smooth="yes"/>
      <point x="316" y="32"/>
      <point x="365.0" y="75.2072072072"/>
      <point x="365.0" y="141.0" type="curve" smooth="yes"/>
      <point x="365.0" y="187.0"/>
      <point x="348.0" y="214.0"/>
      <point x="311.0" y="246.0" type="curve" smooth="yes"/>
      <point x="280.0" y="272.0"/>
      <point x="241" y="301"/>
      <point x="191" y="337" type="curve" smooth="yes"/>
      <point x="151.439361504" y="365.68146291"/>
      <point x="74.0" y="424.0"/>
      <point x="74" y="517" type="curve" smooth="yes"/>
      <point x="74.0" y="617.0"/>
      <point x="149.279620853" y="683.0"/>
    </contour>
  </outline>
</glyph>
<glyph name="T" format="1">
  <advance width="645"/>
  <unicode hex="0054"/>
  <outline>
    <contour>
      <point x="334" y="603" type="curve"/>
      <point x="334" y="616"/>
      <point x="348" y="643"/>
      <point x="348" y="655" type="curve"/>
      <point x="320" y="655" type="line" smooth="yes"/>
      <point x="241" y="655"/>
      <point x="169" y="658"/>
      <point x="124" y="672" type="curve" smooth="yes"/>
      <point x="104" y="679"/>
      <point x="90" y="690"/>
      <point x="84" y="701" type="curve"/>
      <point x="74" y="700" type="line"/>
      <point x="74" y="661"/>
      <point x="64" y="557"/>
      <point x="37" y="477" type="curve"/>
      <point x="53" y="475" type="line"/>
      <point x="77" y="586"/>
      <point x="121" y="603"/>
      <point x="283" y="603" type="curve"/>
      <point x="298" y="603"/>
      <point x="296" y="604"/>
    </contour>
    <contour>
      <point x="264" y="604" type="curve"/>
      <point x="301" y="605"/>
      <point x="347" y="603"/>
      <point x="421" y="603" type="curve" smooth="yes"/>
      <point x="560" y="603"/>
      <point x="592" y="578"/>
      <point x="597" y="476" type="curve"/>
      <point x="613" y="479" type="line"/>
      <point x="594" y="570"/>
      <point x="601" y="666"/>
      <point x="606" y="700" type="curve"/>
      <point x="597" y="701" type="line"/>
      <point x="588" y="685"/>
      <point x="572" y="673"/>
      <point x="544" y="666" type="curve" smooth="yes"/>
      <point x="502" y="656"/>
      <point x="432" y="655"/>
      <point x="334" y="655" type="curve" smooth="yes"/>
      <point x="278" y="655" type="line"/>
      <point x="278" y="643"/>
      <point x="264" y="617"/>
    </contour>
    <contour>
      <point x="489" y="-4" type="curve"/>
      <point x="489" y="12" type="line"/>
      <point x="397" y="17"/>
      <point x="387" y="38"/>
      <point x="387" y="248" type="curve" smooth="yes"/>
      <point x="387" y="338" type="line"/>
      <point x="287" y="338" type="line"/>
      <point x="287" y="248" type="line" smooth="yes"/>
      <point x="287" y="38"/>
      <point x="279" y="17"/>
      <point x="185" y="10" type="curve"/>
      <point x="185" y="-4" type="line"/>
      <point x="238" y="0"/>
      <point x="298" y="4"/>
      <point x="337" y="4" type="curve" smooth="yes"/>
      <point x="376" y="4"/>
      <point x="438" y="0"/>
    </contour>
    <contour>
      <point x="286" y="620" type="line"/>
      <point x="286.959394697" y="520.222951555"/>
      <point x="287" y="490.482233503"/>
      <point x="287" y="431" type="curve" smooth="yes"/>
      <point x="287" y="324" type="line"/>
      <point x="387" y="324" type="line"/>
      <point x="387" y="431" type="line" smooth="yes"/>
      <point x="387" y="490.482233503"/>
      <point x="387.040605303" y="520.222951555"/>
      <point x="388" y="620" type="curve"/>
    </contour>
  </outline>
</glyph>
<glyph name="V" format="1">
  <advance width="749"/>
  <unicode hex="0056"/>
  <outline>
    <contour>
      <point x="409" y="130" type="line"/>
      <point x="379.742999366" y="196.584897995"/>
      <point x="322" y="324"/>
      <point x="291" y="404" type="curve" smooth="yes"/>
      <point x="199" y="641"/>
      <point x="223" y="660"/>
      <point x="304" y="666" type="curve"/>
      <point x="304" y="680" type="line"/>
      <point x="268" y="676"/>
      <point x="210" y="672"/>
      <point x="156" y="672" type="curve" smooth="yes"/>
      <point x="83.0769230769" y="672.0"/>
      <point x="44.3438298688" y="676.303562301"/>
      <point x="12" y="680" type="curve"/>
      <point x="12" y="666" type="line"/>
      <point x="88" y="658"/>
      <point x="100" y="625"/>
      <point x="205" y="356" type="curve" smooth="yes"/>
      <point x="353" y="-24" type="line"/>
    </contour>
    <contour>
      <point x="365" y="-24" type="line"/>
      <point x="548" y="395" type="line" smooth="yes"/>
      <point x="654" y="637"/>
      <point x="686" y="661"/>
      <point x="749" y="666" type="curve"/>
      <point x="749" y="680" type="line"/>
      <point x="720" y="676"/>
      <point x="669" y="672"/>
      <point x="609" y="672" type="curve" smooth="yes"/>
      <point x="581" y="672"/>
      <point x="525" y="676"/>
      <point x="491" y="680" type="curve"/>
      <point x="491" y="666" type="line"/>
      <point x="550" y="661"/>
      <point x="562" y="635"/>
      <point x="520" y="510" type="curve" smooth="yes"/>
      <point x="470.046688867" y="361.139132824"/>
      <point x="389.627292703" y="194.267008983"/>
      <point x="330" y="77" type="curve"/>
      <point x="353" y="-24" type="line"/>
    </contour>
  </outline>
</glyph>
<glyph name="W" format="1">
  <advance width="1086"/>
  <unicode hex="0057"/>
  <outline>
    <contour>
      <point x="320" y="-24" type="line"/>
      <point x="387" y="127" type="line" smooth="yes"/>
      <point x="459.738212625" y="290.932389648"/>
      <point x="524.108131009" y="417.229091122"/>
      <point x="583" y="542" type="curve"/>
      <point x="551" y="669" type="line"/>
      <point x="477" y="489" type="line" smooth="yes"/>
      <point x="408.859913747" y="323.253844249"/>
      <point x="342.209121864" y="205.408738188"/>
      <point x="298" y="119" type="curve"/>
    </contour>
    <contour>
      <point x="765" y="-24" type="line"/>
      <point x="887" y="413" type="line" smooth="yes"/>
      <point x="952" y="647"/>
      <point x="975" y="660"/>
      <point x="1040" y="666" type="curve"/>
      <point x="1040" y="680" type="line"/>
      <point x="1014" y="676"/>
      <point x="941" y="672"/>
      <point x="907" y="672" type="curve" smooth="yes"/>
      <point x="877.236842105" y="672.0"/>
      <point x="820" y="676"/>
      <point x="789" y="680" type="curve"/>
      <point x="789" y="666" type="line"/>
      <point x="869" y="658"/>
      <point x="868" y="616"/>
      <point x="820" y="423" type="curve" smooth="yes"/>
      <point x="802" y="349"/>
      <point x="761" y="217"/>
      <point x="716" y="80" type="curve"/>
    </contour>
    <contour>
      <point x="46" y="666" type="line"/>
      <point x="126.372152245" y="655.826309842"/>
      <point x="141.389618398" y="634.441526407"/>
      <point x="219" y="324" type="curve" smooth="yes"/>
      <point x="306" y="-24" type="line"/>
      <point x="320" y="-24" type="line"/>
      <point x="368" y="155" type="line"/>
      <point x="334.962830925" y="264.122770582"/>
      <point x="311" y="361"/>
      <point x="292" y="440" type="curve" smooth="yes"/>
      <point x="248" y="623"/>
      <point x="254.128402706" y="662.657756639"/>
      <point x="331" y="666" type="curve"/>
      <point x="331" y="680" type="line"/>
      <point x="290.911128337" y="673.832481283"/>
      <point x="230.2" y="672.0"/>
      <point x="187" y="672" type="curve" smooth="yes"/>
      <point x="162.47826087" y="672.0"/>
      <point x="73.5743649144" y="675.914908902"/>
      <point x="46" y="680" type="curve"/>
    </contour>
    <contour>
      <point x="524" y="490" type="line"/>
      <point x="600" y="311"/>
      <point x="669" y="195"/>
      <point x="751" y="-24" type="curve"/>
      <point x="765" y="-24" type="line"/>
      <point x="798" y="152" type="line"/>
      <point x="742.240287285" y="266.560864305"/>
      <point x="660.874106262" y="410.556757033"/>
      <point x="588" y="607" type="curve" smooth="yes"/>
      <point x="565" y="669" type="line"/>
      <point x="551" y="669" type="line"/>
    </contour>
  </outline>
</glyph>
<glyph name="X" format="1">
  <advance width="766"/>
  <unicode hex="0058"/>
  <outline>
    <contour>
      <point x="336" y="518" type="curve" smooth="yes"/>
      <point x="273" y="624"/>
      <point x="271" y="657"/>
      <point x="334" y="666" type="curve"/>
      <point x="334" y="680" type="line"/>
      <point x="296" y="676"/>
      <point x="258" y="672"/>
      <point x="195" y="672" type="curve" smooth="yes"/>
      <point x="127" y="672"/>
      <point x="66" y="676"/>
      <point x="33" y="680" type="curve"/>
      <point x="33" y="666" type="line"/>
      <point x="108" y="659"/>
      <point x="137" y="637"/>
      <point x="256" y="459" type="curve" smooth="yes"/>
      <point x="279" y="425"/>
      <point x="333.95269524" y="335.08278333"/>
      <point x="342" y="321" type="curve"/>
      <point x="357" y="297" type="line"/>
      <point x="377" y="275"/>
      <point x="420.667465976" y="203.591171599"/>
      <point x="439" y="171" type="curve" smooth="yes"/>
      <point x="509" y="50"/>
      <point x="500" y="13"/>
      <point x="441" y="12" type="curve"/>
      <point x="441" y="-4" type="line"/>
      <point x="477" y="1"/>
      <point x="543" y="4"/>
      <point x="579" y="4" type="curve" smooth="yes"/>
      <point x="614" y="4"/>
      <point x="709" y="1"/>
      <point x="745" y="-4" type="curve"/>
      <point x="745" y="12" type="line"/>
      <point x="670" y="17"/>
      <point x="633" y="48"/>
      <point x="539" y="196" type="curve" smooth="yes"/>
      <point x="491" y="272"/>
      <point x="442" y="351"/>
      <point x="427" y="381" type="curve"/>
      <point x="413" y="400" type="line"/>
      <point x="394" y="429"/>
      <point x="361" y="476"/>
    </contour>
    <contour>
      <point x="355" y="398" type="line"/>
      <point x="333" y="356"/>
      <point x="298" y="287"/>
      <point x="249" y="208" type="curve" smooth="yes"/>
      <point x="147" y="44"/>
      <point x="111" y="24"/>
      <point x="23" y="12" type="curve"/>
      <point x="23" y="-4" type="line"/>
      <point x="48" y="-2"/>
      <point x="122" y="4"/>
      <point x="189" y="4" type="curve" smooth="yes"/>
      <point x="220" y="4"/>
      <point x="276" y="-1"/>
      <point x="308" y="-4" type="curve"/>
      <point x="308" y="12" type="line"/>
      <point x="261" y="14"/>
      <point x="243" y="42"/>
      <point x="298" y="151" type="curve" smooth="yes"/>
      <point x="320" y="195"/>
      <point x="379" y="292"/>
      <point x="420" y="352" type="curve"/>
    </contour>
    <contour>
      <point x="459" y="405" type="line" smooth="yes"/>
      <point x="575" y="604"/>
      <point x="613" y="658"/>
      <point x="709" y="666" type="curve"/>
      <point x="709" y="680" type="line"/>
      <point x="679" y="676"/>
      <point x="591" y="672"/>
      <point x="562" y="672" type="curve" smooth="yes"/>
      <point x="529" y="672"/>
      <point x="473" y="676"/>
      <point x="448" y="680" type="curve"/>
      <point x="448" y="666" type="line"/>
      <point x="505" y="661"/>
      <point x="500" y="612"/>
      <point x="448" y="512" type="curve" smooth="yes"/>
      <point x="399" y="420"/>
      <point x="389" y="412"/>
      <point x="355" y="374" type="curve"/>
      <point x="418" y="333" type="line"/>
    </contour>
  </outline>
</glyph>
<glyph name="Y" format="1">
  <advance width="651"/>
  <unicode hex="0059"/>
  <outline>
    <contour>
      <point x="376" y="291" type="line"/>
      <point x="398.945827776" y="333.762679038"/>
      <point x="415.242546578" y="372.653416139"/>
      <point x="434" y="406" type="curve" smooth="yes"/>
      <point x="546" y="615"/>
      <point x="581" y="662"/>
      <point x="651" y="666" type="curve"/>
      <point x="651" y="680" type="line"/>
      <point x="624" y="676"/>
      <point x="574" y="672"/>
      <point x="504" y="672" type="curve" smooth="yes"/>
      <point x="467" y="672"/>
      <point x="421" y="676"/>
      <point x="408" y="677" type="curve"/>
      <point x="408" y="663" type="line"/>
      <point x="463.0" y="658.0"/>
      <point x="477" y="627"/>
      <point x="409" y="488" type="curve" smooth="yes"/>
      <point x="383.264526669" y="435.499634405"/>
      <point x="354.996734267" y="380.670203366"/>
      <point x="317" y="317" type="curve"/>
    </contour>
    <contour>
      <point x="286" y="272" type="curve"/>
      <point x="373" y="321" type="line"/>
      <point x="346.207935524" y="365.309952788"/>
      <point x="332.404351812" y="389.446633068"/>
      <point x="287" y="472" type="curve" smooth="yes"/>
      <point x="198" y="633"/>
      <point x="212.098182522" y="658.088251829"/>
      <point x="272" y="665" type="curve"/>
      <point x="272" y="679" type="line"/>
      <point x="235" y="671"/>
      <point x="184" y="672"/>
      <point x="132" y="672" type="curve" smooth="yes"/>
      <point x="104" y="672"/>
      <point x="34" y="676"/>
      <point x="0" y="680" type="curve"/>
      <point x="0" y="666" type="line"/>
      <point x="75.212836995" y="655.113931488"/>
      <point x="90.2729486216" y="628.533181329"/>
      <point x="197" y="446" type="curve" smooth="yes"/>
      <point x="236.246341782" y="378.868099583"/>
      <point x="273.645613689" y="298.767837007"/>
    </contour>
    <contour>
      <point x="480" y="-4" type="curve"/>
      <point x="480" y="12" type="line"/>
      <point x="388" y="17"/>
      <point x="378" y="26"/>
      <point x="378" y="236" type="curve" smooth="yes"/>
      <point x="378" y="320" type="line"/>
      <point x="278" y="320" type="line"/>
      <point x="278" y="236" type="line" smooth="yes"/>
      <point x="278" y="26"/>
      <point x="270" y="17"/>
      <point x="176" y="10" type="curve"/>
      <point x="176" y="-4" type="line"/>
      <point x="229" y="0"/>
      <point x="289" y="4"/>
      <point x="328" y="4" type="curve" smooth="yes"/>
      <point x="367" y="4"/>
      <point x="429" y="0"/>
    </contour>
  </outline>
</glyph>
<glyph name="Z" format="1">
  <advance width="638"/>
  <unicode hex="005A"/>
  <outline>
    <contour>
      <point x="68" y="10" type="curve"/>
      <point x="72" y="-4" type="line"/>
      <point x="93.0866936396" y="-0.485551060073"/>
      <point x="162.125" y="4.0"/>
      <point x="198" y="4" type="curve"/>
      <point x="198" y="26" type="line"/>
      <point x="224" y="47" type="line"/>
      <point x="309" y="208"/>
      <point x="439" y="421"/>
      <point x="539" y="589" type="curve" smooth="yes"/>
      <point x="586" y="668" type="line"/>
      <point x="584" y="680" type="line"/>
      <point x="545" y="673"/>
      <point x="414" y="666"/>
      <point x="310" y="666" type="curve"/>
      <point x="310" y="639" type="line"/>
      <point x="434" y="620" type="line"/>
      <point x="409" y="563"/>
      <point x="343" y="445"/>
      <point x="264" y="314" type="curve" smooth="yes"/>
      <point x="203" y="213"/>
      <point x="132" y="97"/>
    </contour>
    <contour>
      <point x="114" y="4" type="line"/>
      <point x="326" y="4"/>
      <point x="488" y="4"/>
      <point x="577" y="0" type="curve"/>
      <point x="579" y="16" type="line"/>
      <point x="583" y="75"/>
      <point x="605" y="140"/>
      <point x="616" y="173" type="curve"/>
      <point x="601" y="179" type="line"/>
      <point x="583" y="79"/>
      <point x="544" y="57"/>
      <point x="376" y="57" type="curve" smooth="yes"/>
      <point x="307" y="57"/>
      <point x="245" y="66"/>
      <point x="156" y="91" type="curve"/>
    </contour>
    <contour>
      <point x="454" y="603" type="curve"/>
      <point x="454" y="620"/>
      <point x="468" y="652"/>
      <point x="468" y="666" type="curve"/>
      <point x="310" y="666" type="line" smooth="yes"/>
      <point x="241" y="666"/>
      <point x="177" y="672"/>
      <point x="138" y="682" type="curve" smooth="yes"/>
      <point x="118" y="687"/>
      <point x="107" y="694"/>
      <point x="105" y="704" type="curve"/>
      <point x="93" y="702" type="line"/>
      <point x="93" y="666"/>
      <point x="81" y="572"/>
      <point x="56" y="497" type="curve"/>
      <point x="71" y="495" type="line"/>
      <point x="93" y="600"/>
      <point x="124" y="612"/>
      <point x="283" y="612" type="curve" smooth="yes"/>
      <point x="333" y="612"/>
      <point x="392" y="609"/>
    </contour>
  </outline>
</glyph>
<glyph name="underscore" format="1">
  <advance width="543"/>
  <unicode hex="005F"/>
  <outline>
    <contour>
      <point x="16" y="-54" type="line"/>
      <point x="11" y="-67"/>
      <point x="-11" y="-91"/>
      <point x="-31" y="-110" type="curve"/>
      <point x="-23" y="-115" type="line"/>
      <point x="-15" y="-106"/>
      <point x="-6" y="-105"/>
      <point x="127" y="-103" type="curve" smooth="yes"/>
      <point x="352" y="-100"/>
      <point x="521" y="-103"/>
      <point x="534" y="-107" type="curve"/>
      <point x="540" y="-103" type="line"/>
      <point x="544" y="-84"/>
      <point x="556" y="-67"/>
      <point x="574" y="-48" type="curve"/>
      <point x="568" y="-45" type="line"/>
      <point x="559" y="-60"/>
      <point x="504" y="-60"/>
      <point x="410" y="-61" type="curve" smooth="yes"/>
      <point x="205" y="-64"/>
      <point x="33" y="-59"/>
      <point x="23" y="-52" type="curve"/>
    </contour>
  </outline>
</glyph>
<glyph name="bar" format="1">
  <advance width="269"/>
  <unicode hex="007C"/>
  <outline>
    <contour>
      <point x="230" y="-10" type="curve"/>
      <point x="230" y="1" type="line"/>
      <point x="169" y="5"/>
      <point x="162" y="20"/>
      <point x="162" y="169" type="curve" smooth="yes"/>
      <point x="162" y="492" type="line" smooth="yes"/>
      <point x="162" y="643"/>
      <point x="167" y="657"/>
      <point x="223" y="664" type="curve"/>
      <point x="223" y="674" type="line"/>
      <point x="196" y="670"/>
      <point x="149" y="668"/>
      <point x="128" y="668" type="curve" smooth="yes"/>
      <point x="107" y="668"/>
      <point x="62" y="670"/>
      <point x="33" y="674" type="curve"/>
      <point x="33" y="664" type="line"/>
      <point x="90" y="657"/>
      <point x="94" y="643"/>
      <point x="94" y="492" type="curve" smooth="yes"/>
      <point x="94" y="169" type="line" smooth="yes"/>
      <point x="94" y="20"/>
      <point x="89" y="5"/>
      <point x="26" y="0" type="curve"/>
      <point x="26" y="-10" type="line"/>
      <point x="62" y="-7"/>
      <point x="102" y="-4"/>
      <point x="128" y="-4" type="curve" smooth="yes"/>
      <point x="154" y="-4"/>
      <point x="196" y="-7"/>
    </contour>
  </outline>
</glyph>
<glyph name="cent" format="1">
  <advance width="702"/>
  <unicode hex="00A2"/>
  <outline>
    <contour>
      <point x="240" y="373" type="line"/>
      <point x="240" y="376"/>
      <point x="240" y="380"/>
      <point x="240" y="384" type="curve" smooth="yes"/>
      <point x="240" y="498"/>
      <point x="294" y="545"/>
      <point x="365" y="545" type="curve" smooth="yes"/>
      <point x="407" y="545"/>
      <point x="439" y="530"/>
      <point x="453" y="516" type="curve" smooth="yes"/>
      <point x="466" y="503"/>
      <point x="472" y="480"/>
      <point x="471" y="445" type="curve"/>
      <point x="480" y="446" type="line"/>
      <point x="474" y="519"/>
      <point x="476" y="553"/>
      <point x="480" y="571" type="curve"/>
      <point x="476" y="571" type="line"/>
      <point x="473" y="569"/>
      <point x="467" y="569"/>
      <point x="463" y="569" type="curve" smooth="yes"/>
      <point x="448" y="569"/>
      <point x="407" y="576"/>
      <point x="369" y="576" type="curve" smooth="yes"/>
      <point x="245" y="576"/>
      <point x="168" y="495"/>
      <point x="168" y="379" type="curve"/>
    </contour>
    <contour>
      <point x="240" y="384" type="curve"/>
      <point x="168" y="386" type="line"/>
      <point x="168" y="384"/>
      <point x="168" y="382"/>
      <point x="168" y="380" type="curve" smooth="yes"/>
      <point x="168" y="254"/>
      <point x="261" y="176"/>
      <point x="385" y="176" type="curve" smooth="yes"/>
      <point x="398" y="176"/>
      <point x="426" y="177"/>
      <point x="434" y="177" type="curve" smooth="yes"/>
      <point x="442" y="177"/>
      <point x="452" y="176"/>
      <point x="456" y="175" type="curve"/>
      <point x="458" y="179" type="line"/>
      <point x="460" y="196"/>
      <point x="466" y="223"/>
      <point x="488" y="293" type="curve"/>
      <point x="478" y="295" type="line"/>
      <point x="465" y="225"/>
      <point x="428" y="208"/>
      <point x="387" y="208" type="curve" smooth="yes"/>
      <point x="293" y="208"/>
      <point x="244" y="290"/>
    </contour>
    <contour>
      <point x="410" y="82" type="curve"/>
      <point x="410" y="93" type="line"/>
      <point x="379" y="97"/>
      <point x="376" y="112"/>
      <point x="376" y="261" type="curve" smooth="yes"/>
      <point x="376" y="491" type="line" smooth="yes"/>
      <point x="376" y="642"/>
      <point x="378" y="656"/>
      <point x="406" y="663" type="curve"/>
      <point x="406" y="673" type="line"/>
      <point x="393" y="669"/>
      <point x="369" y="667"/>
      <point x="359" y="667" type="curve" smooth="yes"/>
      <point x="349" y="667"/>
      <point x="326" y="669"/>
      <point x="312" y="673" type="curve"/>
      <point x="312" y="663" type="line"/>
      <point x="340" y="656"/>
      <point x="342" y="642"/>
      <point x="342" y="491" type="curve" smooth="yes"/>
      <point x="342" y="261" type="line" smooth="yes"/>
      <point x="342" y="112"/>
      <point x="340" y="97"/>
      <point x="308" y="92" type="curve"/>
      <point x="308" y="82" type="line"/>
      <point x="326" y="85"/>
      <point x="346" y="88"/>
      <point x="359" y="88" type="curve" smooth="yes"/>
      <point x="372" y="88"/>
      <point x="393" y="85"/>
    </contour>
  </outline>
</glyph>
<glyph name="degree" format="1">
  <advance width="297"/>
  <unicode hex="00B0"/>
  <outline>
    <contour>
      <point x="36" y="515"/>
      <point x="82" y="469"/>
      <point x="145" y="469" type="curve" smooth="yes"/>
      <point x="209" y="469"/>
      <point x="258" y="512"/>
      <point x="258" y="581" type="curve" smooth="yes"/>
      <point x="258" y="631"/>
      <point x="219" y="681"/>
      <point x="151" y="681" type="curve" smooth="yes"/>
      <point x="87" y="681"/>
      <point x="36" y="640"/>
      <point x="36" y="573" type="curve" smooth="yes"/>
    </contour>
    <contour>
      <point x="103" y="486"/>
      <point x="73" y="528"/>
      <point x="73" y="581" type="curve" smooth="yes"/>
      <point x="73" y="629"/>
      <point x="100" y="662"/>
      <point x="145" y="662" type="curve" smooth="yes"/>
      <point x="190" y="662"/>
      <point x="222" y="622"/>
      <point x="222" y="567" type="curve" smooth="yes"/>
      <point x="222" y="510"/>
      <point x="187" y="486"/>
      <point x="151" y="486" type="curve" smooth="yes"/>
    </contour>
  </outline>
</glyph>
<glyph name="plusminus" format="1">
  <advance width="500"/>
  <unicode hex="00B1"/>
  <outline>
    <contour>
      <point x="57" y="451" type="line"/>
      <point x="59" y="403"/>
      <point x="51" y="346"/>
      <point x="19" y="281" type="curve"/>
      <point x="32" y="280" type="line"/>
      <point x="52" y="327"/>
      <point x="91" y="335"/>
      <point x="243" y="335" type="curve" smooth="yes"/>
      <point x="304" y="335" type="line" smooth="yes"/>
      <point x="441" y="335"/>
      <point x="450" y="318"/>
      <point x="450" y="277" type="curve"/>
      <point x="461" y="277" type="line"/>
      <point x="457" y="328"/>
      <point x="460" y="398"/>
      <point x="479" y="451" type="curve"/>
      <point x="469" y="451" type="line"/>
      <point x="449" y="397"/>
      <point x="414" y="394"/>
      <point x="260" y="394" type="curve" smooth="yes"/>
      <point x="207" y="394" type="line" smooth="yes"/>
      <point x="78" y="394"/>
      <point x="67" y="401"/>
      <point x="67" y="451" type="curve"/>
    </contour>
    <contour>
      <point x="360" y="113" type="curve"/>
      <point x="360" y="124" type="line"/>
      <point x="299" y="128"/>
      <point x="292" y="143"/>
      <point x="292" y="292" type="curve" smooth="yes"/>
      <point x="292" y="417" type="line" smooth="yes"/>
      <point x="292" y="568"/>
      <point x="297" y="582"/>
      <point x="353" y="589" type="curve"/>
      <point x="353" y="599" type="line"/>
      <point x="326" y="595"/>
      <point x="279" y="593"/>
      <point x="258" y="593" type="curve" smooth="yes"/>
      <point x="237" y="593"/>
      <point x="192" y="595"/>
      <point x="163" y="599" type="curve"/>
      <point x="163" y="589" type="line"/>
      <point x="220" y="582"/>
      <point x="224" y="568"/>
      <point x="224" y="417" type="curve" smooth="yes"/>
      <point x="224" y="292" type="line" smooth="yes"/>
      <point x="224" y="143"/>
      <point x="219" y="128"/>
      <point x="156" y="123" type="curve"/>
      <point x="156" y="113" type="line"/>
      <point x="193" y="116"/>
      <point x="232" y="119"/>
      <point x="258" y="119" type="curve" smooth="yes"/>
      <point x="284" y="119"/>
      <point x="326" y="116"/>
    </contour>
    <contour>
      <point x="57" y="230" type="line"/>
      <point x="59" y="182"/>
      <point x="51" y="125"/>
      <point x="19" y="60" type="curve"/>
      <point x="32" y="59" type="line"/>
      <point x="52" y="106"/>
      <point x="91" y="114"/>
      <point x="243" y="114" type="curve" smooth="yes"/>
      <point x="304" y="114" type="line" smooth="yes"/>
      <point x="441" y="114"/>
      <point x="450" y="97"/>
      <point x="450" y="56" type="curve"/>
      <point x="461" y="56" type="line"/>
      <point x="457" y="107"/>
      <point x="460" y="177"/>
      <point x="479" y="230" type="curve"/>
      <point x="469" y="230" type="line"/>
      <point x="449" y="176"/>
      <point x="414" y="173"/>
      <point x="260" y="173" type="curve" smooth="yes"/>
      <point x="207" y="173" type="line" smooth="yes"/>
      <point x="78" y="173"/>
      <point x="67" y="180"/>
      <point x="67" y="230" type="curve"/>
    </contour>
  </outline>
</glyph>
<glyph name="divide" format="1">
  <advance width="534"/>
  <unicode hex="00F7"/>
  <outline>
    <contour>
      <point x="276" y="450" type="curve" smooth="yes"/>
      <point x="302" y="450"/>
      <point x="325" y="472"/>
      <point x="325" y="499" type="curve" smooth="yes"/>
      <point x="325" y="526"/>
      <point x="302" y="548"/>
      <point x="276" y="548" type="curve" smooth="yes"/>
      <point x="249" y="548"/>
      <point x="226" y="526"/>
      <point x="226" y="499" type="curve" smooth="yes"/>
      <point x="226" y="472"/>
      <point x="249" y="450"/>
    </contour>
    <contour>
      <point x="276" y="106" type="curve" smooth="yes"/>
      <point x="302" y="106"/>
      <point x="325" y="128"/>
      <point x="325" y="155" type="curve" smooth="yes"/>
      <point x="325" y="182"/>
      <point x="302" y="204"/>
      <point x="276" y="204" type="curve" smooth="yes"/>
      <point x="249" y="204"/>
      <point x="226" y="182"/>
      <point x="226" y="155" type="curve" smooth="yes"/>
      <point x="226" y="128"/>
      <point x="249" y="106"/>
    </contour>
    <component base="hyphen"/>
  </outline>
</glyph>
<glyph name="quoteright" format="1">
  <advance width="246"/>
  <unicode hex="2019"/>
  <outline>
    <contour>
      <point x="64" y="636" type="curve"/>
      <point x="57" y="647" type="line"/>
      <point x="84" y="667"/>
      <point x="134" y="688"/>
      <point x="167" y="688" type="curve" smooth="yes"/>
      <point x="198" y="688"/>
      <point x="209.0" y="670.0"/>
      <point x="210" y="636" type="curve" smooth="yes"/>
      <point x="212" y="580"/>
      <point x="158" y="467"/>
      <point x="64" y="387" type="curve"/>
      <point x="55" y="402" type="line"/>
      <point x="112" y="446"/>
      <point x="137" y="516"/>
      <point x="137" y="578" type="curve" smooth="yes"/>
      <point x="137" y="646"/>
      <point x="104" y="665"/>
    </contour>
  </outline>
</glyph>
<glyph name="daggerdbl" format="1">
  <advance width="517"/>
  <unicode hex="2021"/>
  <outline>
    <contour>
      <point x="70" y="566" type="line"/>
      <point x="72" y="518"/>
      <point x="64" y="461"/>
      <point x="32" y="396" type="curve"/>
      <point x="45" y="395" type="line"/>
      <point x="65" y="442"/>
      <point x="104" y="450"/>
      <point x="256" y="450" type="curve" smooth="yes"/>
      <point x="317" y="450" type="line" smooth="yes"/>
      <point x="454" y="450"/>
      <point x="463" y="433"/>
      <point x="463" y="392" type="curve"/>
      <point x="474" y="392" type="line"/>
      <point x="470" y="443"/>
      <point x="473" y="513"/>
      <point x="492" y="566" type="curve"/>
      <point x="482" y="566" type="line"/>
      <point x="462" y="512"/>
      <point x="427" y="509"/>
      <point x="273" y="509" type="curve" smooth="yes"/>
      <point x="220" y="509" type="line" smooth="yes"/>
      <point x="91" y="509"/>
      <point x="80" y="516"/>
      <point x="80" y="566" type="curve"/>
    </contour>
    <contour>
      <point x="373" y="-10" type="curve"/>
      <point x="373" y="1" type="line"/>
      <point x="312" y="5"/>
      <point x="305" y="20"/>
      <point x="305" y="169" type="curve" smooth="yes"/>
      <point x="305" y="492" type="line" smooth="yes"/>
      <point x="305" y="643"/>
      <point x="310" y="657"/>
      <point x="366" y="664" type="curve"/>
      <point x="366" y="674" type="line"/>
      <point x="339" y="670"/>
      <point x="292" y="668"/>
      <point x="271" y="668" type="curve" smooth="yes"/>
      <point x="250" y="668"/>
      <point x="205" y="670"/>
      <point x="176" y="674" type="curve"/>
      <point x="176" y="664" type="line"/>
      <point x="233" y="657"/>
      <point x="237" y="643"/>
      <point x="237" y="492" type="curve" smooth="yes"/>
      <point x="237" y="169" type="line" smooth="yes"/>
      <point x="237" y="20"/>
      <point x="232" y="5"/>
      <point x="169" y="0" type="curve"/>
      <point x="169" y="-10" type="line"/>
      <point x="205" y="-7"/>
      <point x="245" y="-4"/>
      <point x="271" y="-4" type="curve" smooth="yes"/>
      <point x="297" y="-4"/>
      <point x="339" y="-7"/>
    </contour>
    <contour>
      <point x="70" y="363" type="line"/>
      <point x="72" y="315"/>
      <point x="64" y="258"/>
      <point x="32" y="193" type="curve"/>
      <point x="45" y="192" type="line"/>
      <point x="65" y="239"/>
      <point x="104" y="247"/>
      <point x="256" y="247" type="curve" smooth="yes"/>
      <point x="317" y="247" type="line" smooth="yes"/>
      <point x="454" y="247"/>
      <point x="463" y="230"/>
      <point x="463" y="189" type="curve"/>
      <point x="474" y="189" type="line"/>
      <point x="470" y="240"/>
      <point x="473" y="310"/>
      <point x="492" y="363" type="curve"/>
      <point x="482" y="363" type="line"/>
      <point x="462" y="309"/>
      <point x="427" y="306"/>
      <point x="273" y="306" type="curve" smooth="yes"/>
      <point x="220" y="306" type="line" smooth="yes"/>
      <point x="91" y="306"/>
      <point x="80" y="313"/>
      <point x="80" y="363" type="curve"/>
    </contour>
  </outline>
</glyph>
<glyph name="infinity" format="1">
  <advance width="954.0"/>
  <unicode hex="221E"/>
  <outline>
    <contour>
      <point x="93" y="264" type="curve" smooth="yes"/>
      <point x="95" y="151"/>
      <point x="177.0" y="115.0"/>
      <point x="237" y="115" type="curve" smooth="yes"/>
      <point x="307.853982301" y="115.0"/>
      <point x="398.150419709" y="142.80970755"/>
      <point x="476" y="235" type="curve"/>
      <point x="491" y="220" type="line"/>
      <point x="416.490634495" y="127.118462179"/>
      <point x="293.224" y="69.0"/>
      <point x="228" y="69" type="curve" smooth="yes"/>
      <point x="145.0" y="69.0"/>
      <point x="45.0" y="118.579268293"/>
      <point x="45" y="242" type="curve" smooth="yes"/>
      <point x="44" y="316"/>
      <point x="97" y="415"/>
      <point x="222" y="415" type="curve" smooth="yes"/>
      <point x="326.676258993" y="415.0"/>
      <point x="417.901610788" y="325.953332329"/>
      <point x="513" y="266" type="curve" smooth="yes"/>
      <point x="602.078247997" y="209.841974089"/>
      <point x="726.037800687" y="123.0"/>
      <point x="791" y="123" type="curve" smooth="yes"/>
      <point x="850.673913043" y="123.0"/>
      <point x="881" y="172"/>
      <point x="881" y="228" type="curve" smooth="yes"/>
      <point x="881" y="319"/>
      <point x="795.0" y="365.0"/>
      <point x="722" y="365" type="curve" smooth="yes"/>
      <point x="677.691629956" y="365.0"/>
      <point x="576.911642005" y="330.243079237"/>
      <point x="508" y="219" type="curve"/>
      <point x="495" y="237" type="line"/>
      <point x="569.826316661" y="340.378463808"/>
      <point x="662.971929825" y="415.0"/>
      <point x="767" y="415" type="curve" smooth="yes"/>
      <point x="867.0" y="415.0"/>
      <point x="937.0" y="341.6875"/>
      <point x="937" y="245" type="curve" smooth="yes"/>
      <point x="937" y="146"/>
      <point x="855" y="78"/>
      <point x="745" y="78" type="curve" smooth="yes"/>
      <point x="654.075907591" y="78.0"/>
      <point x="552.031454044" y="156.959240331"/>
      <point x="455" y="221" type="curve" smooth="yes"/>
      <point x="351.436398367" y="289.351977078"/>
      <point x="249.046049321" y="373.050767489"/>
      <point x="186" y="372" type="curve" smooth="yes"/>
      <point x="119" y="371"/>
      <point x="92" y="323"/>
    </contour>
  </outline>
</glyph>
<glyph name="lozenge" format="1">
  <advance width="500"/>
  <unicode hex="25CA"/>
  <outline>
    <contour>
      <point x="25" y="385" type="curve"/>
      <point x="25" y="376" type="line"/>
      <point x="111" y="234"/>
      <point x="182" y="94"/>
      <point x="238" y="-29" type="curve"/>
      <point x="244" y="-28" type="line"/>
      <point x="273" y="36" type="line"/>
      <point x="215" y="128"/>
      <point x="144" y="266"/>
      <point x="96" y="369" type="curve" smooth="yes"/>
      <point x="75" y="418"/>
      <point x="76" y="430"/>
      <point x="87" y="442" type="curve"/>
      <point x="78" y="451" type="line"/>
      <point x="67" y="429"/>
      <point x="43" y="396"/>
    </contour>
    <contour>
      <point x="462" y="340" type="curve"/>
      <point x="456" y="395"/>
      <point x="460" y="446"/>
      <point x="462" y="471" type="curve"/>
      <point x="453" y="473" type="line"/>
      <point x="426" y="371"/>
      <point x="397" y="303"/>
      <point x="327" y="171" type="curve" smooth="yes"/>
      <point x="298" y="116"/>
      <point x="260" y="62"/>
      <point x="228" y="18" type="curve"/>
      <point x="240" y="-28" type="line"/>
      <point x="247" y="-28" type="line"/>
      <point x="276" y="19" type="line" smooth="yes"/>
      <point x="341" y="141"/>
      <point x="390" y="226"/>
    </contour>
    <contour>
      <point x="475" y="346" type="curve"/>
      <point x="476" y="354" type="line"/>
      <point x="391" y="497"/>
      <point x="319" y="637"/>
      <point x="262" y="760" type="curve"/>
      <point x="256" y="758" type="line"/>
      <point x="228" y="695" type="line"/>
      <point x="286" y="603"/>
      <point x="356" y="465"/>
      <point x="404" y="361" type="curve" smooth="yes"/>
      <point x="426" y="314"/>
      <point x="424" y="301"/>
      <point x="414" y="288" type="curve"/>
      <point x="422" y="279" type="line"/>
      <point x="433" y="300"/>
      <point x="456" y="335"/>
    </contour>
    <contour>
      <point x="39" y="390" type="curve"/>
      <point x="45" y="335"/>
      <point x="41" y="284"/>
      <point x="38" y="260" type="curve"/>
      <point x="47" y="258" type="line"/>
      <point x="75" y="359"/>
      <point x="103" y="428"/>
      <point x="174" y="559" type="curve" smooth="yes"/>
      <point x="202" y="615"/>
      <point x="240" y="667"/>
      <point x="272" y="713" type="curve"/>
      <point x="260" y="759" type="line"/>
      <point x="253" y="759" type="line"/>
      <point x="225" y="711" type="line" smooth="yes"/>
      <point x="159" y="590"/>
      <point x="111" y="504"/>
    </contour>
  </outline>
</glyph>
<glyph name="A.001" format="1">
  <advance width="675"/>
  <outline>
    <contour>
      <point x="442.0" y="162.0" type="curve" smooth="yes"/>
      <point x="488.0" y="31.0"/>
      <point x="470.0" y="12.0"/>
      <point x="411.0" y="12.0" type="curve"/>
      <point x="411.0" y="-4.0" type="line"/>
      <point x="438.0" y="0.0"/>
      <point x="509.0" y="4.0"/>
      <point x="527.0" y="4.0" type="curve" smooth="yes"/>
      <point x="554.0" y="4.0"/>
      <point x="638.0" y="0.0"/>
      <point x="675.0" y="-4.0" type="curve"/>
      <point x="675.0" y="12.0" type="line"/>
      <point x="620.0" y="14.0"/>
      <point x="601" y="35"/>
      <point x="567" y="111" type="curve" smooth="yes"/>
      <point x="419.553031032" y="440.529131988"/>
      <point x="371.971669999" y="641.122763338"/>
      <point x="363" y="680" type="curve"/>
      <point x="351" y="680" type="line"/>
      <point x="334" y="675"/>
      <point x="293" y="672"/>
      <point x="266" y="672" type="curve" smooth="yes"/>
      <point x="234" y="672"/>
      <point x="187" y="676"/>
      <point x="154" y="680" type="curve"/>
      <point x="154" y="666" type="line"/>
      <point x="230" y="662"/>
      <point x="264" y="638"/>
      <point x="308" y="522" type="curve"/>
      <point x="360.267099612" y="398.72853865"/>
      <point x="393.490559351" y="299.608413269"/>
    </contour>
    <contour>
      <point x="186" y="176" type="line"/>
      <point x="219" y="177"/>
      <point x="269" y="179"/>
      <point x="319" y="179" type="curve" smooth="yes"/>
      <point x="358" y="179"/>
      <point x="417" y="177"/>
      <point x="449" y="176" type="curve"/>
      <point x="449" y="237" type="line"/>
      <point x="416" y="235"/>
      <point x="378" y="233"/>
      <point x="318" y="233" type="curve" smooth="yes"/>
      <point x="277" y="233"/>
      <point x="219" y="235"/>
      <point x="186" y="236" type="curve"/>
    </contour>
    <contour>
      <point x="290" y="645" type="line"/>
      <point x="269.903898897" y="549.54351976"/>
      <point x="205.507516222" y="368.419325029"/>
      <point x="146" y="202" type="curve" smooth="yes"/>
      <point x="95" y="59"/>
      <point x="80.0" y="19.0"/>
      <point x="0.0" y="12.0" type="curve"/>
      <point x="0.0" y="-4.0" type="line"/>
      <point x="28.0" y="0.0"/>
      <point x="72.0" y="4.0"/>
      <point x="111.0" y="4.0" type="curve" smooth="yes"/>
      <point x="136.0" y="4.0"/>
      <point x="209.0" y="0.0"/>
      <point x="237.0" y="-4.0" type="curve"/>
      <point x="237.0" y="12.0" type="line"/>
      <point x="177.0" y="14.0"/>
      <point x="176" y="28"/>
      <point x="218.0" y="205.0" type="curve" smooth="yes"/>
      <point x="241" y="301"/>
      <point x="303.179044381" y="464.899880976"/>
      <point x="347" y="577" type="curve"/>
      <point x="340" y="645" type="line"/>
    </contour>
  </outline>
</glyph>
<glyph name="CapVertStem2" format="1">
  <advance width="564"/>
  <outline>
    <contour>
      <point x="342" y="-4" type="curve"/>
      <point x="342" y="12" type="line"/>
      <point x="250" y="17"/>
      <point x="240" y="38"/>
      <point x="240" y="248" type="curve" smooth="yes"/>
      <point x="240" y="424" type="line" smooth="yes"/>
      <point x="240" y="637"/>
      <point x="248" y="656"/>
      <point x="332" y="666" type="curve"/>
      <point x="332" y="680" type="line"/>
      <point x="291" y="675"/>
      <point x="221" y="673"/>
      <point x="190" y="673" type="curve" smooth="yes"/>
      <point x="159" y="673"/>
      <point x="91" y="675"/>
      <point x="48" y="680" type="curve"/>
      <point x="48" y="666" type="line"/>
      <point x="134" y="656"/>
      <point x="140" y="637"/>
      <point x="140" y="424" type="curve" smooth="yes"/>
      <point x="140" y="248" type="line" smooth="yes"/>
      <point x="140" y="38"/>
      <point x="132" y="17"/>
      <point x="38" y="10" type="curve"/>
      <point x="38" y="-4" type="line"/>
      <point x="91" y="0"/>
      <point x="151" y="4"/>
      <point x="190" y="4" type="curve" smooth="yes"/>
      <point x="229" y="4"/>
      <point x="291" y="0"/>
    </contour>
  </outline>
</glyph>
<glyph name="CapVertStroke" format="1">
  <advance width="565"/>
  <outline>
    <contour>
      <point x="256" y="50" type="line"/>
      <point x="221" y="50" type="line"/>
      <point x="221" y="619" type="line"/>
      <point x="238" y="619" type="line"/>
      <point x="238" y="669" type="line"/>
      <point x="25" y="669" type="line"/>
      <point x="25" y="656" type="line"/>
      <point x="99" y="650"/>
      <point x="119" y="616"/>
      <point x="119" y="572" type="curve" smooth="yes"/>
      <point x="119" y="97" type="line" smooth="yes"/>
      <point x="119" y="53"/>
      <point x="99" y="19"/>
      <point x="25" y="13" type="curve"/>
      <point x="25" y="0" type="line"/>
      <point x="256" y="0" type="line"/>
    </contour>
  </outline>
</glyph>
<glyph name="D.001" format="1">
  <advance width="767"/>
  <outline>
    <contour>
      <point x="182" y="603" type="curve"/>
      <point x="206" y="608"/>
      <point x="261" y="619"/>
      <point x="332" y="619" type="curve" smooth="yes"/>
      <point x="501" y="619"/>
      <point x="606" y="509"/>
      <point x="606" y="312" type="curve" smooth="yes"/>
      <point x="606" y="141"/>
      <point x="499.582677165" y="50.0"/>
      <point x="341" y="50" type="curve" smooth="yes"/>
      <point x="274" y="50"/>
      <point x="234" y="76"/>
      <point x="222" y="85" type="curve"/>
      <point x="153" y="2" type="line"/>
      <point x="191" y="2"/>
      <point x="282" y="-4"/>
      <point x="321" y="-4" type="curve" smooth="yes"/>
      <point x="550.195876289" y="-4.0"/>
      <point x="718.0" y="118.922437673"/>
      <point x="718" y="351" type="curve" smooth="yes"/>
      <point x="718.0" y="565.993690852"/>
      <point x="572.706185567" y="674.0"/>
      <point x="321" y="674" type="curve" smooth="yes"/>
      <point x="262" y="674"/>
      <point x="243" y="672"/>
      <point x="190" y="672" type="curve"/>
      <point x="190.0" y="662.142857143"/>
      <point x="182" y="616"/>
    </contour>
    <contour>
      <point x="246" y="4" type="line"/>
      <point x="244" y="53"/>
      <point x="240" y="100"/>
      <point x="240" y="338" type="curve" smooth="yes"/>
      <point x="240" y="600"/>
      <point x="243" y="634"/>
      <point x="244" y="672" type="curve"/>
      <point x="190" y="672" type="line"/>
      <point x="159" y="672"/>
      <point x="91" y="675"/>
      <point x="48" y="680" type="curve"/>
      <point x="48" y="666" type="line"/>
      <point x="134" y="656"/>
      <point x="140" y="637"/>
      <point x="140" y="424" type="curve" smooth="yes"/>
      <point x="140" y="248" type="line" smooth="yes"/>
      <point x="140" y="38"/>
      <point x="132" y="17"/>
      <point x="38" y="10" type="curve"/>
      <point x="38" y="-4" type="line"/>
      <point x="86" y="0"/>
      <point x="117" y="2"/>
      <point x="153" y="2" type="curve"/>
    </contour>
  </outline>
</glyph>
<glyph name="E.001" format="1">
  <advance width="603"/>
  <outline>
    <contour>
      <point x="213" y="320" type="line"/>
      <point x="224" y="321"/>
      <point x="255" y="323"/>
      <point x="265" y="323" type="curve" smooth="yes"/>
      <point x="309" y="323"/>
      <point x="369" y="323"/>
      <point x="398" y="307" type="curve" smooth="yes"/>
      <point x="429" y="289"/>
      <point x="437" y="264"/>
      <point x="443" y="218" type="curve"/>
      <point x="459" y="223" type="line"/>
      <point x="444.508459342" y="271.65017221"/>
      <point x="443.0" y="339.27480916"/>
      <point x="443" y="359" type="curve" smooth="yes"/>
      <point x="443" y="396"/>
      <point x="450" y="421"/>
      <point x="460" y="449" type="curve"/>
      <point x="446" y="452" type="line"/>
      <point x="434" y="391"/>
      <point x="399" y="380"/>
      <point x="314" y="380" type="curve" smooth="yes"/>
      <point x="293" y="380"/>
      <point x="241" y="383"/>
      <point x="213" y="384" type="curve"/>
    </contour>
    <contour>
      <point x="255.900269542" y="4.0"/>
      <point x="382.339419548" y="3.98896196592"/>
      <point x="505" y="0" type="curve"/>
      <point x="507" y="14" type="line"/>
      <point x="508" y="53"/>
      <point x="531" y="138"/>
      <point x="544" y="173" type="curve"/>
      <point x="529" y="179" type="line"/>
      <point x="509.995775167" y="82.978653474"/>
      <point x="466.635294118" y="57.0"/>
      <point x="358" y="57" type="curve" smooth="yes"/>
      <point x="304.709677419" y="57.0"/>
      <point x="248.004648307" y="66.0697684619"/>
      <point x="181" y="90" type="curve"/>
      <point x="144" y="4" type="line"/>
    </contour>
    <contour>
      <point x="207" y="4" type="curve"/>
      <point x="243" y="37" type="line"/>
      <point x="237.899671852" y="135.946366078"/>
      <point x="238.967858414" y="251.392920704"/>
      <point x="241" y="353" type="curve"/>
      <point x="238.050987167" y="468.994504776"/>
      <point x="238.955092263" y="566.157979926"/>
      <point x="243" y="642" type="curve"/>
      <point x="361" y="643" type="line"/>
      <point x="361" y="666" type="line"/>
      <point x="327" y="666"/>
      <point x="122.73025851" y="672.218770264"/>
      <point x="42" y="680" type="curve"/>
      <point x="42" y="666" type="line"/>
      <point x="132.920598301" y="657.91816904"/>
      <point x="140" y="628.0"/>
      <point x="140" y="420" type="curve" smooth="yes"/>
      <point x="140" y="245" type="line" smooth="yes"/>
      <point x="140" y="38"/>
      <point x="132" y="14"/>
      <point x="38" y="12" type="curve"/>
      <point x="38" y="-4" type="line"/>
      <point x="91" y="0"/>
      <point x="133" y="4"/>
    </contour>
    <contour>
      <point x="190" y="601" type="line" name=""/>
      <point x="213" y="604"/>
      <point x="278" y="612"/>
      <point x="313" y="612" type="curve" smooth="yes" name=""/>
      <point x="448.75" y="612.0"/>
      <point x="485" y="595"/>
      <point x="494" y="496" type="curve" name=""/>
      <point x="510" y="499" type="line" name=""/>
      <point x="491" y="584"/>
      <point x="500" y="666"/>
      <point x="509" y="701" type="curve" name=""/>
      <point x="499" y="704" type="line" name=""/>
      <point x="497" y="697"/>
      <point x="491" y="686"/>
      <point x="481" y="681" type="curve" smooth="yes"/>
      <point x="465" y="672"/>
      <point x="442" y="666"/>
      <point x="369" y="666" type="curve" name=""/>
      <point x="214" y="663" type="line" name=""/>
    </contour>
  </outline>
</glyph>
<glyph name="F.001" format="1">
  <advance width="565"/>
  <outline>
    <contour>
      <point x="342" y="-4" type="curve"/>
      <point x="342" y="12" type="line"/>
      <point x="250" y="17"/>
      <point x="240" y="38"/>
      <point x="240" y="248" type="curve" smooth="yes"/>
      <point x="240" y="362" type="line"/>
      <point x="140" y="361" type="line"/>
      <point x="140" y="250" type="line" smooth="yes"/>
      <point x="140" y="40"/>
      <point x="132" y="19"/>
      <point x="38" y="12" type="curve"/>
      <point x="38" y="-4" type="line"/>
      <point x="91" y="0"/>
      <point x="151" y="4"/>
      <point x="190" y="4" type="curve" smooth="yes"/>
      <point x="229" y="4"/>
      <point x="291" y="0"/>
    </contour>
    <contour>
      <point x="240" y="362" type="line"/>
      <point x="237" y="461"/>
      <point x="239" y="541"/>
      <point x="240" y="622" type="curve"/>
      <point x="316" y="638" type="line"/>
      <point x="316" y="672" type="line"/>
      <point x="244" y="672"/>
      <point x="137" y="672"/>
      <point x="48" y="680" type="curve"/>
      <point x="48" y="666" type="line"/>
      <point x="134" y="656"/>
      <point x="140" y="637"/>
      <point x="140" y="424" type="curve" smooth="yes"/>
      <point x="140" y="361" type="line"/>
    </contour>
    <contour>
      <point x="200" y="611" type="line" name=""/>
      <point x="220" y="614"/>
      <point x="294" y="619"/>
      <point x="325" y="619" type="curve" name=""/>
      <point x="472" y="619"/>
      <point x="499" y="599"/>
      <point x="506" y="479" type="curve" name=""/>
      <point x="522" y="482" type="line" name=""/>
      <point x="506" y="595"/>
      <point x="521" y="642"/>
      <point x="524" y="680" type="curve" name=""/>
      <point x="516" y="681" type="line" name=""/>
      <point x="484" y="676"/>
      <point x="408" y="672"/>
      <point x="347" y="672" type="curve" name=""/>
      <point x="224" y="672" type="line" name=""/>
    </contour>
    <contour>
      <point x="206" y="327" type="line"/>
      <point x="220" y="328"/>
      <point x="258" y="330"/>
      <point x="271" y="330" type="curve" smooth="yes"/>
      <point x="316" y="330"/>
      <point x="383" y="331"/>
      <point x="418" y="298" type="curve" smooth="yes"/>
      <point x="433" y="284"/>
      <point x="448" y="259"/>
      <point x="453" y="225" type="curve"/>
      <point x="468" y="226" type="line"/>
      <point x="454" y="271"/>
      <point x="450" y="312"/>
      <point x="450" y="353" type="curve" smooth="yes"/>
      <point x="450" y="395"/>
      <point x="458" y="426"/>
      <point x="469" y="461" type="curve"/>
      <point x="456" y="463" type="line"/>
      <point x="443" y="395"/>
      <point x="408" y="382"/>
      <point x="321" y="382" type="curve" smooth="yes"/>
      <point x="297" y="382"/>
      <point x="239" y="385"/>
      <point x="206" y="386" type="curve"/>
    </contour>
  </outline>
</glyph>
<glyph name="G.001" format="1">
  <advance width="795"/>
  <outline>
    <contour>
      <point x="505" y="-10"/>
      <point x="584" y="42"/>
      <point x="608" y="121" type="curve"/>
      <point x="608" y="196" type="line"/>
      <point x="540" y="196" type="line"/>
      <point x="540" y="97"/>
      <point x="492" y="50"/>
      <point x="406" y="50" type="curve" smooth="yes"/>
      <point x="274" y="50"/>
      <point x="167.0" y="175.543046358"/>
      <point x="167" y="353" type="curve" smooth="yes"/>
      <point x="167.0" y="547.0"/>
      <point x="282.670454545" y="629.0"/>
      <point x="428" y="629" type="curve" smooth="yes"/>
      <point x="494.226415094" y="629.0"/>
      <point x="555.582251395" y="617.307168092"/>
      <point x="590" y="592" type="curve" smooth="yes"/>
      <point x="628.560820582" y="562.572005345"/>
      <point x="636.000078256" y="524.001917277"/>
      <point x="634" y="475" type="curve"/>
      <point x="649" y="477" type="line"/>
      <point x="637" y="583"/>
      <point x="642" y="637"/>
      <point x="651" y="675" type="curve"/>
      <point x="643" y="676" type="line"/>
      <point x="635" y="673"/>
      <point x="624" y="673"/>
      <point x="614" y="673" type="curve" smooth="yes"/>
      <point x="585" y="673"/>
      <point x="504" y="684"/>
      <point x="448" y="684" type="curve" smooth="yes"/>
      <point x="183.007712082" y="684.0"/>
      <point x="50.0" y="522.0"/>
      <point x="50" y="344" type="curve" smooth="yes"/>
      <point x="50.0" y="137.5"/>
      <point x="184" y="-10"/>
      <point x="391" y="-10" type="curve" smooth="yes"/>
    </contour>
    <contour>
      <point x="636" y="135" type="curve" smooth="yes"/>
      <point x="636" y="275"/>
      <point x="645" y="302"/>
      <point x="717" y="302" type="curve"/>
      <point x="717" y="317" type="line"/>
      <point x="662" y="309"/>
      <point x="627" y="309"/>
      <point x="588" y="309" type="curve" smooth="yes"/>
      <point x="537" y="309"/>
      <point x="482" y="313"/>
      <point x="446" y="317" type="curve"/>
      <point x="446" y="302" type="line"/>
      <point x="527" y="297"/>
      <point x="540" y="283"/>
      <point x="540" y="196" type="curve" smooth="yes"/>
      <point x="540" y="151" type="line"/>
      <point x="557" y="151" type="line"/>
      <point x="567" y="17"/>
      <point x="656.662251656" y="-4.0"/>
      <point x="708" y="-4" type="curve"/>
      <point x="708" y="12" type="line"/>
      <point x="669" y="6"/>
      <point x="636" y="44"/>
    </contour>
  </outline>
</glyph>
<glyph name="I.Bottom.Major" format="1">
  <advance width="343"/>
  <outline>
    <contour>
      <point x="221" y="338" type="line"/>
      <point x="122" y="338" type="line"/>
      <point x="122" y="0" type="line"/>
      <point x="306" y="0" type="line"/>
      <point x="306" y="16" type="line"/>
      <point x="232" y="27"/>
      <point x="221" y="47"/>
      <point x="221" y="113" type="curve" smooth="yes"/>
    </contour>
  </outline>
</glyph>
<glyph name="I.Top.Minor" format="1">
  <advance width="343"/>
  <outline>
    <contour>
      <point x="221" y="332" type="line"/>
      <point x="221" y="557" type="line" smooth="yes"/>
      <point x="221" y="623"/>
      <point x="232" y="643"/>
      <point x="306" y="654" type="curve"/>
      <point x="306" y="670" type="line"/>
      <point x="122" y="670" type="line"/>
      <point x="122" y="332" type="line"/>
    </contour>
  </outline>
</glyph>
<glyph name="I.Top" format="1">
  <advance width="343"/>
  <outline>
    <contour>
      <point x="221" y="332" type="line"/>
      <point x="221" y="557" type="line" smooth="yes"/>
      <point x="221" y="623"/>
      <point x="232" y="643"/>
      <point x="306" y="654" type="curve"/>
      <point x="306" y="670" type="line"/>
      <point x="122" y="670" type="line"/>
      <point x="122" y="332" type="line"/>
    </contour>
    <contour>
      <point x="122" y="332" type="line"/>
      <point x="221" y="332" type="line"/>
      <point x="221" y="670" type="line"/>
      <point x="24" y="670" type="line"/>
      <point x="24" y="654" type="line"/>
      <point x="108" y="644"/>
      <point x="122" y="632"/>
      <point x="122" y="503" type="curve" smooth="yes"/>
    </contour>
  </outline>
</glyph>
<glyph name="J.001" format="1">
  <advance width="337"/>
  <outline>
    <contour>
      <point x="22" y="-191" type="curve" smooth="yes"/>
      <point x="101.0" y="-191.0"/>
      <point x="140" y="-146.921146953"/>
      <point x="140" y="95" type="curve" smooth="yes"/>
      <point x="140" y="365" type="line"/>
      <point x="240" y="365" type="line"/>
      <point x="240" y="-15" type="line" smooth="yes"/>
      <point x="240" y="-193"/>
      <point x="177" y="-239"/>
      <point x="77" y="-239" type="curve" smooth="yes"/>
      <point x="-4.0" y="-239.0"/>
      <point x="-58.4453133879" y="-203.713168501"/>
      <point x="-94" y="-158" type="curve"/>
      <point x="-82" y="-149" type="line"/>
      <point x="-38.2215810962" y="-181.579288487"/>
      <point x="-2.0" y="-191.0"/>
    </contour>
    <contour>
      <point x="240" y="324" type="line"/>
      <point x="140" y="324" type="line"/>
      <point x="140" y="424" type="line" smooth="yes"/>
      <point x="140" y="637"/>
      <point x="124" y="656"/>
      <point x="34" y="666" type="curve"/>
      <point x="34" y="680" type="line"/>
      <point x="78" y="675"/>
      <point x="158" y="672"/>
      <point x="190" y="672" type="curve" smooth="yes"/>
      <point x="221" y="672"/>
      <point x="282" y="675"/>
      <point x="323" y="680" type="curve"/>
      <point x="323" y="666" type="line"/>
      <point x="239" y="656"/>
      <point x="240" y="627"/>
      <point x="240" y="388" type="curve" smooth="yes"/>
    </contour>
  </outline>
</glyph>
<glyph name="Q.001" format="1">
  <advance width="809"/>
  <outline>
    <contour>
      <point x="325" y="6" type="line"/>
      <point x="329" y="2"/>
      <point x="340" y="-9"/>
      <point x="347" y="-16" type="curve" smooth="yes"/>
      <point x="380" y="-45"/>
      <point x="432" y="-94"/>
      <point x="477" y="-131" type="curve" smooth="yes"/>
      <point x="559" y="-200"/>
      <point x="633" y="-235"/>
      <point x="699" y="-235" type="curve" smooth="yes"/>
      <point x="777" y="-235"/>
      <point x="848" y="-199"/>
      <point x="891" y="-159" type="curve"/>
      <point x="885" y="-146" type="line"/>
      <point x="860" y="-164"/>
      <point x="830" y="-180"/>
      <point x="781" y="-180" type="curve" smooth="yes"/>
      <point x="730" y="-180"/>
      <point x="670" y="-160"/>
      <point x="604" y="-128" type="curve" smooth="yes"/>
      <point x="580" y="-117"/>
      <point x="496" y="-68"/>
      <point x="408" y="5" type="curve"/>
    </contour>
    <component base="O"/>
  </outline>
</glyph>
<glyph name="R.001" format="1">
  <advance width="702"/>
  <outline>
    <contour>
      <point x="208" y="612" type="line"/>
      <point x="229.681166387" y="619.541275265"/>
      <point x="261.322580645" y="624.0"/>
      <point x="295" y="624" type="curve" smooth="yes"/>
      <point x="364" y="624"/>
      <point x="449" y="585"/>
      <point x="449" y="473" type="curve" smooth="yes"/>
      <point x="449.0" y="418.495495495"/>
      <point x="419.919683048" y="381.943480664"/>
      <point x="393" y="363" type="curve" smooth="yes"/>
      <point x="365" y="343"/>
      <point x="328" y="338"/>
      <point x="303" y="338" type="curve" smooth="yes"/>
      <point x="268.0" y="338.0"/>
      <point x="226.965117127" y="348.008720718"/>
      <point x="219" y="350" type="curve"/>
      <point x="222" y="294" type="line"/>
      <point x="233.0" y="296.0"/>
      <point x="265.0" y="296.0"/>
      <point x="288" y="296" type="curve"/>
      <point x="356" y="298" type="line"/>
      <point x="376" y="316" type="line"/>
      <point x="493" y="343"/>
      <point x="547" y="421"/>
      <point x="547" y="494" type="curve" smooth="yes"/>
      <point x="547" y="623"/>
      <point x="456" y="677"/>
      <point x="331" y="676" type="curve" smooth="yes"/>
      <point x="296" y="676"/>
      <point x="247.825503356" y="672.0"/>
      <point x="196" y="672" type="curve"/>
    </contour>
    <contour>
      <point x="253" y="297" type="line"/>
      <point x="323.422764228" y="297.0"/>
      <point x="348.09106852" y="281.892066939"/>
      <point x="375" y="250" type="curve" smooth="yes"/>
      <point x="406.166679975" y="212.801059384"/>
      <point x="434.940772865" y="166.102002288"/>
      <point x="453" y="135" type="curve" smooth="yes"/>
      <point x="482" y="90"/>
      <point x="497" y="57"/>
      <point x="518" y="33" type="curve" smooth="yes"/>
      <point x="552" y="-6"/>
      <point x="585" y="-17"/>
      <point x="636" y="-17" type="curve" smooth="yes"/>
      <point x="675" y="-17"/>
      <point x="727" y="-2"/>
      <point x="760" y="19" type="curve"/>
      <point x="753" y="33" type="line"/>
      <point x="747" y="26"/>
      <point x="732" y="20"/>
      <point x="713" y="20" type="curve" smooth="yes"/>
      <point x="681" y="20"/>
      <point x="645" y="40"/>
      <point x="581" y="125" type="curve" smooth="yes"/>
      <point x="529" y="195"/>
      <point x="496" y="253"/>
      <point x="451" y="291" type="curve" smooth="yes"/>
      <point x="423" y="315"/>
      <point x="388" y="323"/>
      <point x="349" y="329" type="curve"/>
      <point x="263" y="329" type="line"/>
    </contour>
    <contour>
      <point x="240" y="325" type="line"/>
      <point x="237.0675622" y="441.320032742"/>
      <point x="239.067542896" y="575.228915568"/>
      <point x="242" y="672" type="curve"/>
      <point x="182" y="672" type="line"/>
      <point x="151" y="672"/>
      <point x="91" y="675"/>
      <point x="48" y="680" type="curve"/>
      <point x="48" y="666" type="line"/>
      <point x="134" y="656"/>
      <point x="140" y="637"/>
      <point x="140" y="424" type="curve" smooth="yes"/>
      <point x="140" y="317" type="line"/>
    </contour>
    <contour>
      <point x="326" y="-4" type="curve"/>
      <point x="326" y="12" type="line"/>
      <point x="249.988709954" y="17.0007427662"/>
      <point x="240" y="38.8813559322"/>
      <point x="240" y="256" type="curve" smooth="yes"/>
      <point x="240" y="346" type="line"/>
      <point x="140" y="338" type="line"/>
      <point x="140" y="248" type="line" smooth="yes"/>
      <point x="140" y="38"/>
      <point x="132" y="17"/>
      <point x="38" y="10" type="curve"/>
      <point x="38" y="-4" type="line"/>
      <point x="91" y="0"/>
      <point x="151" y="4"/>
      <point x="190" y="4" type="curve" smooth="yes"/>
      <point x="229" y="4"/>
      <point x="291" y="0"/>
    </contour>
  </outline>
</glyph>
<glyph name="ampersand," format="1">
  <advance width="500"/>
  <outline>
    <contour>
      <point x="669" y="0" type="line"/>
      <point x="547" y="0" type="line"/>
      <point x="456" y="87" type="line"/>
      <point x="398" y="21" name="inserted"/>
      <point x="330" y="-11"/>
      <point x="250" y="-11" type="curve" smooth="yes"/>
      <point x="196" y="-11" name="inserted"/>
      <point x="150" y="6"/>
      <point x="110" y="42" type="curve" smooth="yes"/>
      <point x="66" y="80" name="inserted"/>
      <point x="45" y="125"/>
      <point x="45" y="181" type="curve" smooth="yes"/>
      <point x="45" y="248" name="inserted"/>
      <point x="89" y="306"/>
      <point x="177" y="358" type="curve"/>
      <point x="117" y="410" name="inserted"/>
      <point x="88" y="460"/>
      <point x="88" y="512" type="curve" smooth="yes"/>
      <point x="88" y="554" name="inserted"/>
      <point x="104" y="591"/>
      <point x="135" y="622" type="curve" smooth="yes"/>
      <point x="169" y="656" name="inserted"/>
      <point x="213" y="672"/>
      <point x="267" y="672" type="curve" smooth="yes"/>
      <point x="325" y="672" name="inserted"/>
      <point x="371" y="655"/>
      <point x="405" y="619" type="curve" smooth="yes"/>
      <point x="433" y="589" name="inserted"/>
      <point x="447" y="556"/>
      <point x="447" y="518" type="curve" smooth="yes"/>
      <point x="447" y="482" name="inserted"/>
      <point x="435" y="450"/>
      <point x="412" y="423" type="curve" smooth="yes"/>
      <point x="391" y="399" name="inserted"/>
      <point x="358" y="374"/>
      <point x="310" y="347" type="curve"/>
      <point x="451" y="211" type="line"/>
      <point x="482" y="253" name="inserted"/>
      <point x="506" y="297"/>
      <point x="524" y="344" type="curve"/>
      <point x="620" y="344" type="line"/>
      <point x="595" y="280" name="inserted"/>
      <point x="559" y="217"/>
      <point x="510" y="153" type="curve"/>
    </contour>
    <contour>
      <point x="357" y="513" type="curve" smooth="yes"/>
      <point x="357" y="557"/>
      <point x="319" y="594"/>
      <point x="265" y="594" type="curve" smooth="yes"/>
      <point x="236" y="594" name="inserted"/>
      <point x="214" y="585"/>
      <point x="197" y="567" type="curve" smooth="yes"/>
      <point x="184" y="552" name="inserted"/>
      <point x="177" y="535"/>
      <point x="177" y="516" type="curve" smooth="yes"/>
      <point x="177" y="489" name="inserted"/>
      <point x="203" y="450"/>
      <point x="256" y="399" type="curve"/>
      <point x="324" y="435" name="inserted"/>
      <point x="357" y="472"/>
    </contour>
    <contour>
      <point x="399" y="142" type="curve"/>
      <point x="232" y="302" type="line"/>
      <point x="169" y="270" name="inserted"/>
      <point x="138" y="231"/>
      <point x="138" y="183" type="curve" smooth="yes"/>
      <point x="138" y="121"/>
      <point x="189" y="73"/>
      <point x="267" y="73" type="curve" smooth="yes"/>
      <point x="318" y="73" name="inserted"/>
      <point x="361" y="96"/>
    </contour>
  </outline>
</glyph>
